<svg width="271" height="127" viewBox="0 0 271 127" fill="none" xmlns="http://www.w3.org/2000/svg">
<path d="M60.2901 113.944C60.2901 113.944 58.8435 109.989 56.9909 104.849H56.9094V104.621C55.1942 99.8644 53.1482 94.1458 51.5849 89.6222V104.8H45.351V83.2589H49.459C49.2992 82.7467 49.1968 82.3574 49.1473 82.1148C48.8836 80.8383 49.1953 80.0405 49.6524 79.3688H31.542V125.642H66.1308V124.761C62.2578 122.918 61.1532 116.269 60.2901 113.944ZM40.1496 104.849H33.9157V83.3083H40.1496V104.849Z" stroke="#111111" stroke-width="0.960582" stroke-linecap="round" stroke-linejoin="round"/>
<path d="M51.583 108.524V106.507H45.3555V108.524H51.583Z" fill="#6D6D6D"/>
<path d="M56.9092 108.57V106.553H57.5006L58.0553 108.57H56.9092Z" fill="#6D6D6D"/>
<path d="M40.1475 108.57V106.553H33.9199V108.57H40.1475Z" fill="#6D6D6D"/>
<path d="M48.3507 119.826C49.5584 119.826 50.5374 118.848 50.5374 117.643C50.5374 116.437 49.5584 115.46 48.3507 115.46C47.1431 115.46 46.1641 116.437 46.1641 117.643C46.1641 118.848 47.1431 119.826 48.3507 119.826Z" stroke="#111111" stroke-width="0.960582" stroke-linecap="round" stroke-linejoin="round"/>
<path d="M61.692 118.948C61.4546 119.285 61.1265 119.548 60.7456 119.707C60.3648 119.865 59.9467 119.913 59.5398 119.845C59.1328 119.776 58.7536 119.594 58.446 119.32C58.1383 119.045 57.9148 118.689 57.8012 118.293C57.6877 117.897 57.6887 117.477 57.8042 117.081C57.9196 116.686 58.1449 116.331 58.4538 116.058C58.7628 115.785 59.1429 115.605 59.5501 115.538C59.9574 115.472 60.3752 115.521 60.7553 115.682" stroke="#111111" stroke-width="0.960582" stroke-linecap="round" stroke-linejoin="round"/>
<path d="M36.9142 119.874C38.1219 119.874 39.1009 118.896 39.1009 117.691C39.1009 116.485 38.1219 115.508 36.9142 115.508C35.7065 115.508 34.7275 116.485 34.7275 117.691C34.7275 118.896 35.7065 119.874 36.9142 119.874Z" stroke="#111111" stroke-width="0.960582" stroke-linecap="round" stroke-linejoin="round"/>
<path d="M51.585 89.8536V104.808H45.3574V83.2621H49.3024" stroke="#111111" stroke-width="0.960582" stroke-linecap="round" stroke-linejoin="round"/>
<path d="M51.1596 88.3872H45.9551" stroke="#111111" stroke-width="0.960582" stroke-linecap="round" stroke-linejoin="round"/>
<path d="M51.1596 90.7599H45.9551" stroke="#111111" stroke-width="0.960582" stroke-linecap="round" stroke-linejoin="round"/>
<path d="M51.1596 93.1326H45.9551" stroke="#111111" stroke-width="0.960582" stroke-linecap="round" stroke-linejoin="round"/>
<path d="M40.1475 104.854V83.3101H33.9199V104.854H40.1475Z" stroke="#111111" stroke-width="0.960582" stroke-linecap="round" stroke-linejoin="round"/>
<path d="M39.7271 98.3055H34.3691" stroke="#111111" stroke-width="0.960582" stroke-linecap="round" stroke-linejoin="round"/>
<path d="M39.7271 86.0624H34.3691" stroke="#111111" stroke-width="0.960582" stroke-linecap="round" stroke-linejoin="round"/>
<path d="M39.7271 100.678H34.3691" stroke="#111111" stroke-width="0.960582" stroke-linecap="round" stroke-linejoin="round"/>
<path d="M39.7271 103.051H34.3691" stroke="#111111" stroke-width="0.960582" stroke-linecap="round" stroke-linejoin="round"/>
<path d="M55.5851 61.6112C55.2961 60.7989 54.8677 60.043 54.3191 59.3773C52.3338 56.9631 52.3098 55.4298 51.1909 54.2729C50.072 53.1161 48.2961 53.6443 49.8946 57.5679C50.1471 58.187 50.3768 58.7492 50.5835 59.2544" stroke="#111111" stroke-width="0.960582" stroke-linecap="round" stroke-linejoin="round"/>
<path d="M47.3545 58.9736C48.9817 58.9976 54.3877 59.4044 57.3576 63.8291" stroke="#111111" stroke-width="0.960582" stroke-linecap="round" stroke-linejoin="round"/>
<path d="M47.4443 62.4425C50.881 61.7181 59.4647 60.9618 61.1494 70.8993" stroke="#111111" stroke-width="0.960582" stroke-linecap="round" stroke-linejoin="round"/>
<path d="M52.7448 73.8767C52.2765 72.2508 51.7234 70.7094 51.1208 69.7696C49.3529 67.0124 45.4047 67.2166 45.4047 67.2166C45.4047 67.2166 35.3665 58.3306 33.9135 56.7254C32.4605 55.1203 33.0168 53.5901 35.6142 55.374C36.9553 56.2946 39.6871 58.2461 42.008 59.9231" stroke="#111111" stroke-width="0.960582" stroke-linecap="round" stroke-linejoin="round"/>
<path d="M45.2339 66.8208C45.2339 66.8208 40.0789 55.3883 39.3068 53.2342C38.5348 51.0801 39.5786 49.944 41.3321 52.8018C42.0929 54.0432 43.2774 55.993 44.3691 57.8072" stroke="#111111" stroke-width="0.960582" stroke-linecap="round" stroke-linejoin="round"/>
<path d="M44.7461 65.9066C44.7461 65.9066 44.3353 56.0999 44.3369 54.1995C44.3369 51.0674 46.2215 50.177 46.7074 54.399C47.0271 57.2184 47.39 62.4154 47.39 62.4154" stroke="#111111" stroke-width="0.960582" stroke-linecap="round" stroke-linejoin="round"/>
<path d="M193.188 61.7915C193.477 60.9129 193.928 60.0954 194.516 59.3805C196.503 56.9648 196.523 55.4298 197.647 54.2746C198.771 53.1193 200.54 53.6459 198.942 57.5695C198.672 58.2365 198.427 58.8375 198.207 59.3726" stroke="#111111" stroke-width="0.960582" stroke-linecap="round" stroke-linejoin="round"/>
<path d="M201.616 58.972C200.195 58.972 194.686 59.2656 191.601 63.652" stroke="#111111" stroke-width="0.960582" stroke-linecap="round" stroke-linejoin="round"/>
<path d="M201.354 62.4345C197.893 61.7133 189.366 60.9984 187.686 70.8913" stroke="#111111" stroke-width="0.960582" stroke-linecap="round" stroke-linejoin="round"/>
<path d="M196.208 73.4681C196.651 71.9954 197.167 70.6279 197.714 69.7663C199.482 67.0091 203.43 67.2133 203.43 67.2133C203.43 67.2133 213.465 58.3289 214.921 56.7237C216.377 55.1186 215.818 53.5884 213.22 55.3723C211.844 56.3169 209.005 58.3497 206.641 60.0506" stroke="#111111" stroke-width="0.960582" stroke-linecap="round" stroke-linejoin="round"/>
<path d="M203.602 66.8208C203.602 66.8208 208.757 55.3883 209.529 53.2342C210.301 51.0801 209.257 49.944 207.505 52.8018C206.728 54.0655 205.513 56.068 204.401 57.9078" stroke="#111111" stroke-width="0.960582" stroke-linecap="round" stroke-linejoin="round"/>
<path d="M204.399 57.9301C204.456 56.2595 204.499 54.8154 204.498 54.1995C204.498 51.0674 202.613 50.177 202.127 54.399C201.808 57.2184 201.446 62.4154 201.446 62.4154" stroke="#111111" stroke-width="0.960582" stroke-linecap="round" stroke-linejoin="round"/>
<path d="M204.089 65.9065C204.089 65.9065 204.278 61.4229 204.399 57.9285" stroke="#111111" stroke-width="0.960582" stroke-linecap="round" stroke-linejoin="round"/>
<path d="M102.706 49.4399C94.7746 53.3955 92.2714 59.5976 93.1042 66.0583H93.0274C93.0274 66.0583 82.596 65.9194 76.7521 83.2494C75.0401 79.2285 73.3026 75.2937 72.5561 74.0619C70.857 71.2663 65.0562 72.5221 63.5409 70.5802C62.0256 68.6384 61.4885 68.0272 61.4885 68.0272C61.4885 68.0272 56.9808 73.3981 51.3511 72.7965C51.3511 72.7965 51.0314 73.7635 51.2456 76.2048C51.4598 78.6461 48.4851 78.9253 49.1485 82.1181C49.8118 85.3109 60.2848 113.944 60.2848 113.944C61.2727 116.606 62.577 124.933 67.9894 125.23C68.0041 125.269 68.0297 125.303 68.0631 125.327C68.0966 125.352 68.1365 125.366 68.178 125.369C76.76 125.345 181.701 125.433 181.701 125.433C181.701 125.433 181.711 125.319 181.722 125.106C186.398 124.005 187.609 116.454 188.541 113.944C188.541 113.944 199.016 85.3109 199.677 82.1181C200.339 78.9253 197.369 78.6461 197.582 76.2048C197.795 73.7635 197.475 72.7965 197.475 72.7965C191.852 73.3901 187.342 68.0288 187.342 68.0288C187.342 68.0288 186.805 68.6352 185.291 70.5818C183.778 72.5285 180.904 70.3297 179.206 73.1252C177.835 75.3846 172.972 87.2257 171.155 91.6854C165.64 75.3128 158.545 66.9933 146.969 64.8998C146.209 60.3077 144.184 55.0948 139.058 51.3068" stroke="#111111" stroke-width="0.960582" stroke-linecap="round" stroke-linejoin="round"/>
<path d="M197.347 75.8474C197.748 73.2944 197.54 72.3115 197.54 72.3115C192.403 73.4205 187.655 67.5901 187.655 67.5901C187.655 67.5901 187.117 68.2666 185.577 70.4175C185.139 71.0734 184.465 71.5361 183.694 71.71C185.827 78.6381 195.112 79.5285 198.593 79.6114C198.335 78.1004 197.043 77.7861 197.347 75.8474Z" fill="#111111"/>
<path d="M51.1823 75.8346C50.7811 73.2816 51.2958 72.3115 51.2958 72.3115C56.4348 73.4205 61.1822 67.5901 61.1822 67.5901C61.1822 67.5901 61.9558 67.6763 63.4919 69.8239C64.1105 70.6904 65.1735 71.4196 65.8145 71.5967C63.6821 78.5232 53.0029 79.4631 49.5215 79.5476C49.7836 78.0414 51.486 77.7749 51.1823 75.8346Z" fill="#111111"/>
<path d="M93.4833 65.7391C90.3599 66.3774 86.6851 67.7975 83.8223 70.968C86.4869 74.8166 96.2294 88.124 113.394 90.9131C113.38 90.7944 113.354 90.6773 113.317 90.5637C103.801 86.656 94.4887 75.8218 93.4833 65.7391Z" fill="#111111"/>
<path d="M146.336 63.9696C146.93 67.5151 146.767 70.6983 146.688 72.5779C146.424 78.7913 144.14 83.0819 142.385 86.1742L142.049 88.3969C149.298 86.6911 155.324 75.1533 156.294 68.5506C153.721 67.1513 152.64 65.2429 146.336 63.9696Z" fill="#111111"/>
<path d="M113.195 86.4454C113.195 86.4454 120.085 98.3104 120.799 105.805" stroke="#111111" stroke-width="1.28078" stroke-linecap="round" stroke-linejoin="round"/>
<path d="M141.112 86.1503C141.112 86.1503 138.203 97.8254 138.991 105.314" stroke="#111111" stroke-width="1.28078" stroke-linecap="round" stroke-linejoin="round"/>
<path d="M76.5664 82.6207L84.0376 100.077" stroke="#111111" stroke-width="0.960582" stroke-linecap="round" stroke-linejoin="round"/>
<path d="M171.41 91.2019L166.319 101.131" stroke="#111111" stroke-width="0.960582" stroke-linecap="round" stroke-linejoin="round"/>
<path d="M98.9189 112.81C98.9189 112.81 98.2796 125.801 91.4766 125.498" stroke="#111111" stroke-width="0.960582" stroke-linecap="round" stroke-linejoin="round"/>
<path d="M136.973 91.4285C140.632 80.6198 139.211 67.0555 136.74 65.0897C136.243 64.6956 134.748 64.3956 132.677 64.1675C131.81 64.0733 131.133 64.702 131.133 64.702L134.205 65.1807C132.835 78.2839 126.977 82.4133 126.977 82.4133C117.429 71.4052 106.753 64.0255 106.753 64.0255L107.52 63.4973L106.977 63.5053L102.071 65.1919C102.071 65.1919 120.749 82.5138 126.28 114.121C127.148 119.077 127.734 122.972 128.124 126.028L137.582 125.474C136.165 114.507 134.656 98.2897 136.973 91.4285Z" fill="#111111"/>
<path d="M111.069 57.0095L110.829 61.2203L106.753 64.0254C106.753 64.0254 117.429 71.4052 126.976 82.4277C126.976 82.4277 132.835 78.2934 134.205 65.195L131.132 64.7163" stroke="#111111" stroke-width="0.960582" stroke-linecap="round" stroke-linejoin="round"/>
<path d="M105.766 41.8751C104.115 42.3442 100.718 43.8553 102.089 48.1555C103.277 51.878 106.591 51.2972 108.68 50.4898" stroke="#111111" stroke-width="0.960582" stroke-linecap="round" stroke-linejoin="round"/>
<path d="M136.912 26.4041C138.496 32.8057 138.957 39.8072 138.936 45.2147L136.912 26.4041Z" fill="white"/>
<path d="M136.912 26.4041C138.496 32.8057 138.957 39.8072 138.936 45.2147" stroke="#111111" stroke-width="0.960582" stroke-linecap="round" stroke-linejoin="round"/>
<path d="M109.17 40.3193C110.334 41.2592 113.831 47.0608 114.842 49.8388C114.842 49.8388 121.486 46.6204 131.382 45.304C131.382 45.304 136.801 44.7791 139.031 45.1844C139.031 45.1844 139.723 55.3628 135.943 61.1214C132.162 66.8799 122.727 66.5066 118.019 63.8658C113.312 61.2251 112.425 59.8098 111.031 56.5563C109.637 53.3028 105.537 41.0437 105.537 41.0437L109.17 40.3193Z" stroke="#111111" stroke-width="0.960582" stroke-linecap="round" stroke-linejoin="round"/>
<path d="M106.601 42.8117C106.601 42.8117 103.108 38.4956 101.419 33.7853C99.8202 29.3575 101.377 24.3425 105.301 21.8182C108.584 19.7072 111.315 20.7476 111.315 20.7476C111.315 20.7476 106.906 14.8023 111.809 8.52993C112.659 7.43731 113.726 6.53118 114.942 5.86796C116.159 5.20474 117.499 4.79864 118.88 4.67493C125.662 4.09253 128.405 9.64846 128.405 9.64846C128.405 9.64846 134.123 -4.67856 149.86 1.58423C151.447 2.22247 153.384 4.26486 154.362 5.68176C160.296 14.2757 145.368 27.0024 137.058 28.8373C127.93 30.851 122.352 29.9255 119.12 27.9789C121.484 29.0703 120.576 43.375 106.601 42.8117Z" fill="#111111"/>
<path d="M130.556 38.9232L132.564 47.6257L129.982 48.2113" stroke="#111111" stroke-width="1.28078" stroke-linecap="round" stroke-linejoin="round"/>
<path d="M133.982 42.4161C134.474 42.3612 134.803 41.6905 134.716 40.9181C134.63 40.1456 134.161 39.564 133.669 39.6189C133.176 39.6738 132.847 40.3446 132.934 41.117C133.021 41.8894 133.49 42.4711 133.982 42.4161Z" fill="#111111"/>
<path d="M125.459 42.9828C125.952 42.9279 126.28 42.2571 126.194 41.4847C126.107 40.7123 125.638 40.1306 125.146 40.1856C124.654 40.2405 124.325 40.9112 124.412 41.6836C124.498 42.4561 124.967 43.0377 125.459 42.9828Z" fill="#111111"/>
<path d="M122.143 39.3173C122.143 39.3173 125.789 39.1003 125.742 36.6686" stroke="#111111" stroke-width="1.28078" stroke-linecap="round" stroke-linejoin="round"/>
<path d="M132.636 33.1886C132.636 33.1886 135.033 32.2456 135.884 34.221" stroke="#111111" stroke-width="1.28078" stroke-linecap="round" stroke-linejoin="round"/>
<path d="M129.765 52.0918C128.485 52.3257 127.182 52.4119 125.882 52.3487C125.083 52.3152 124.477 52.8083 124.714 53.3061C125.128 54.1805 126.117 55.2208 128.467 54.948C130.782 54.6736 131.244 53.6061 131.239 52.7843C131.236 52.2897 130.489 51.9498 129.765 52.0918Z" stroke="#111111" stroke-width="0.960582" stroke-linecap="round" stroke-linejoin="round"/>
<path d="M151.106 105.704C150.768 105.704 150.438 105.804 150.157 105.992C149.876 106.179 149.658 106.445 149.528 106.756C149.399 107.068 149.365 107.41 149.431 107.741C149.497 108.071 149.66 108.375 149.898 108.613C150.137 108.852 150.441 109.014 150.773 109.08C151.104 109.146 151.447 109.112 151.759 108.983C152.071 108.854 152.337 108.635 152.525 108.355C152.713 108.075 152.813 107.746 152.813 107.408C152.812 106.957 152.632 106.523 152.312 106.204C151.992 105.884 151.558 105.705 151.106 105.704Z" fill="#111111"/>
<path d="M145.609 117.692C145.156 117.692 144.722 117.872 144.401 118.191C144.081 118.511 143.901 118.944 143.901 119.396C143.901 119.848 144.081 120.282 144.401 120.601C144.722 120.921 145.156 121.101 145.609 121.101H145.616C146.069 121.099 146.503 120.919 146.822 120.599C147.142 120.278 147.321 119.844 147.32 119.392C147.319 118.94 147.138 118.507 146.817 118.189C146.496 117.87 146.061 117.691 145.609 117.692Z" fill="#111111"/>
<path d="M189.492 102.046H143.137V113.625L134.63 113.767L134.686 125.346L183.814 125.113L183.758 113.625H189.497L189.492 102.046ZM147.502 121.266C147.257 121.517 146.965 121.717 146.642 121.854C146.319 121.991 145.972 122.062 145.621 122.064H145.608C144.901 122.066 144.222 121.787 143.721 121.289C143.22 120.791 142.937 120.115 142.935 119.409C142.934 118.703 143.213 118.026 143.712 117.525C144.211 117.025 144.888 116.743 145.595 116.741H145.608C146.132 116.743 146.645 116.899 147.08 117.19C147.516 117.481 147.857 117.894 148.059 118.377C148.261 118.86 148.316 119.391 148.217 119.905C148.118 120.419 147.869 120.893 147.502 121.266ZM151.105 110.067C150.578 110.067 150.062 109.911 149.624 109.618C149.185 109.326 148.844 108.91 148.642 108.424C148.44 107.938 148.387 107.402 148.49 106.886C148.593 106.37 148.847 105.896 149.22 105.523C149.593 105.151 150.068 104.898 150.585 104.795C151.102 104.692 151.638 104.745 152.125 104.946C152.613 105.148 153.029 105.489 153.322 105.927C153.615 106.364 153.771 106.879 153.771 107.405C153.771 108.111 153.491 108.789 152.991 109.288C152.491 109.788 151.813 110.069 151.105 110.07V110.067ZM158.539 122.275L158.509 116.052L160.53 116.042L160.558 122.265L158.539 122.275ZM161.041 104.415H163.061V110.638H161.041V104.415ZM161.463 122.26L161.433 116.038L183.012 115.935L183.042 122.158L161.463 122.26ZM185.547 110.632H163.968V104.409H185.547V110.632Z" fill="#111111"/>
<path d="M177.907 121.474L177.885 116.854" stroke="#6D6D6D" stroke-width="0.960582" stroke-linecap="round" stroke-linejoin="round"/>
<path d="M175.53 121.485L175.508 116.866" stroke="#6D6D6D" stroke-width="0.960582" stroke-linecap="round" stroke-linejoin="round"/>
<path d="M173.153 121.496L173.131 116.877" stroke="#6D6D6D" stroke-width="0.960582" stroke-linecap="round" stroke-linejoin="round"/>
<path d="M170.524 109.853V105.234" stroke="#6D6D6D" stroke-width="0.960582" stroke-linecap="round" stroke-linejoin="round"/>
<path d="M182.789 109.853V105.234" stroke="#6D6D6D" stroke-width="0.960582" stroke-linecap="round" stroke-linejoin="round"/>
<path d="M168.147 109.853V105.234" stroke="#6D6D6D" stroke-width="0.960582" stroke-linecap="round" stroke-linejoin="round"/>
<path d="M165.771 109.853V105.234" stroke="#6D6D6D" stroke-width="0.960582" stroke-linecap="round" stroke-linejoin="round"/>
<path d="M238.138 85.1577H180.729V125.578H238.138V85.1577Z" fill="#6D6D6D"/>
<path d="M212.939 85.2502V125.809V85.2502Z" fill="#6D6D6D"/>
<path d="M212.939 85.2502V125.809" stroke="#111111" stroke-width="0.960582" stroke-linecap="round" stroke-linejoin="round"/>
<path d="M205.211 89.635H231.187" stroke="#111111" stroke-width="0.960582" stroke-linecap="round" stroke-linejoin="round"/>
<path d="M220.927 104.157H237.616" stroke="#111111" stroke-width="0.960582" stroke-linecap="round" stroke-linejoin="round"/>
<path d="M202.613 117.705H235.15" stroke="#111111" stroke-width="0.960582" stroke-linecap="round" stroke-linejoin="round"/>
<path d="M207.16 100.527H190.341" stroke="#111111" stroke-width="0.960582" stroke-linecap="round" stroke-linejoin="round"/>
<path d="M180.793 94.173H190.989" stroke="#111111" stroke-width="0.960582" stroke-linecap="round" stroke-linejoin="round"/>
<path d="M180.729 112.843H200.665" stroke="#111111" stroke-width="0.960582" stroke-linecap="round" stroke-linejoin="round"/>
<path d="M180.643 94.2367C176.356 95.9217 180.772 98.7411 180.772 98.7411C180.772 98.7411 181.877 95.5499 187.526 94.2495L180.643 94.2367Z" fill="#6D6D6D" stroke="#111111" stroke-width="0.960582" stroke-linecap="round" stroke-linejoin="round"/>
<path d="M238.305 104.09C242.591 105.775 238.174 108.596 238.174 108.596C238.174 108.596 237.071 105.405 231.421 104.102L238.305 104.09Z" fill="#6D6D6D" stroke="#111111" stroke-width="0.960582" stroke-linecap="round" stroke-linejoin="round"/>
<path d="M195.796 112.872C195.796 112.872 185.849 114.745 186.095 120.587C186.095 120.587 178.122 117.667 180.82 112.872H195.796Z" fill="#6D6D6D" stroke="#111111" stroke-width="0.960582" stroke-linecap="round" stroke-linejoin="round"/>
<path d="M1 125.528H270.338" stroke="#111111" stroke-width="1.28078" stroke-linecap="round" stroke-linejoin="round"/>
</svg>
