<svg width="272" height="137" viewBox="0 0 272 137" fill="none" xmlns="http://www.w3.org/2000/svg">
<path d="M174.957 69.6978C174.189 66.464 173.365 64.2501 172.451 62.7671C172.479 64.5925 172.44 66.2458 172.371 67.601C172.029 74.3562 152.477 86.1279 150.439 85.6703C140.357 80.5152 131.031 74.6719 123.819 68.5412C121.546 70.7054 119.656 73.5455 118.304 77.2494C126.448 86.4331 133.199 93.7718 133.199 93.7718C131.862 94.4605 130.362 94.7744 128.86 94.68C128.81 94.6891 128.76 94.695 128.709 94.6978C125.698 94.8273 119.322 92.601 116.138 91.4072L115.693 110.933C117.294 109.586 119.585 108.494 122.73 108.804C122.872 108.818 123.002 108.887 123.093 108.996C123.183 109.106 123.226 109.247 123.212 109.388C123.199 109.529 123.129 109.659 123.02 109.749C122.91 109.839 122.769 109.882 122.627 109.868C119.311 109.546 117.072 110.933 115.661 112.387L115.643 113.132C117.522 111.731 120.404 110.498 124.15 111.612C124.286 111.653 124.4 111.745 124.467 111.869C124.534 111.994 124.549 112.139 124.508 112.275C124.468 112.41 124.375 112.524 124.25 112.591C124.126 112.658 123.98 112.673 123.844 112.632C120.042 111.5 117.262 113.033 115.661 114.45C116.478 115.962 116.766 117.961 115.873 120.551C117.934 118.777 119.925 117.381 120.919 117.638C123.321 118.259 124.965 121.101 120.742 124.725C119.889 125.454 118.975 126.171 118.052 126.854C120.848 125.484 123.49 124.514 124.538 125.209C127.028 126.863 125.427 131.98 119.633 133.614C117.637 134.177 116.239 134.645 115.186 135.003V135.589H144.83L144.15 112.386L145.511 111.332L148.743 135.581L182.348 136L174.957 69.6978Z" fill="#111111"/>
<path d="M52.8729 92.9414C52.3392 93.266 51.7255 92.6185 51.8215 91.3448C51.9176 90.0711 58.0762 84.4088 58.0762 84.4088L58.6756 83.8039C58.6756 83.8039 58.7272 84.0345 55.6515 82.814C52.5758 81.5936 53.6111 78.475 55.2833 79.6209C56.9554 80.7669 60.7409 80.9798 60.7409 80.9798L71.0888 81.3009C76.8062 84.1391 73.1612 92.4464 73.1612 92.4464L64.8627 92.7604" stroke="#111111" stroke-width="1.07019" stroke-linecap="round" stroke-linejoin="round"/>
<path d="M57.0446 88.6963C56.8453 88.8045 49.2886 95.2456 52.9531 96.9167" stroke="#111111" stroke-width="1.07019" stroke-linecap="round" stroke-linejoin="round"/>
<path d="M58.2808 90.6956C58.2808 90.6956 52.784 95.8967 52.9334 97.362C53.0828 98.8272 53.942 99.2831 55.5555 97.103" stroke="#111111" stroke-width="1.07019" stroke-linecap="round" stroke-linejoin="round"/>
<path d="M60.0382 92.3399C60.0382 92.3399 55.4433 95.533 54.947 98.8485C55.7226 100.759 60.1734 96.6133 61.0575 95.2669C61.0575 95.2669 63.3826 95.0044 65.7912 91.304" stroke="#111111" stroke-width="1.07019" stroke-linecap="round" stroke-linejoin="round"/>
<path d="M113.571 56.8066C106.734 48.4957 107.652 19.6907 107.652 19.6907C107.652 19.6907 106.439 19.9692 104.014 20.6273C103.649 20.7538 103.303 20.9286 102.984 21.1471L103.409 21.195C103.409 21.195 101.501 30.3644 102.614 42.1273C102.614 42.1273 95.8331 41.6466 88.5948 37.116C87.812 41.6359 96.7368 51.8396 100.25 56.5706C103.763 61.3017 125.985 87.2773 128.743 88.716C131.5 90.1546 144.977 82.6846 144.977 82.6846C133.318 77.1996 120.409 65.1174 113.571 56.8066Z" fill="#111111"/>
<path d="M75.9985 30.5757C75.9238 35.069 79.9797 39.3832 82.7281 42.1062C81.1128 45.1325 77.9464 55.8151 81.8902 75.7381C78.1545 75.7381 75.182 75.7913 74.2658 75.9669C71.183 76.5594 72.1721 78.8425 69.9235 79.552C67.675 80.2616 66.9492 80.5366 66.9492 80.5366C66.9492 80.5366 70.5711 87.7281 68.1945 92.5407C68.1945 92.5407 68.9647 93.1421 71.2435 93.7559C73.5223 94.3697 72.631 96.6935 75.7352 97.1529C77.6546 97.4385 91.7987 97.3977 102.328 97.3303C103.466 97.3224 104.591 97.0812 105.631 96.6217C106.672 96.1622 107.607 95.4942 108.378 94.6593C109.149 93.8244 109.74 92.8403 110.113 91.7682C110.487 90.6961 110.636 89.5588 110.55 88.427L110.579 88.4376L110.534 88.2336C110.47 87.6241 110.339 87.0234 110.145 86.442L109.433 83.2134C109.433 83.2134 112.373 87.9729 112.964 89.2146C113.555 90.4564 114.903 90.9407 115.91 91.3203C119.011 92.4928 125.617 94.8273 128.7 94.6907C128.751 94.688 128.801 94.682 128.851 94.673C130.353 94.7673 131.853 94.4534 133.19 93.7647" stroke="#111111" stroke-width="1.07019" stroke-linecap="round" stroke-linejoin="round"/>
<path d="M182.847 40.8271C181.633 37.909 176.455 28.6845 164.866 31.1468C162.66 31.6198 160.591 32.1567 158.659 32.7575C149.775 24.3934 136.657 13.6416 128.604 14.2927C124.711 14.6342 120.858 15.3343 117.095 16.3841C113.037 8.75625 105.354 4.54849 95.1201 9.75142" stroke="#111111" stroke-width="1.07019" stroke-linecap="round" stroke-linejoin="round"/>
<path d="M150.438 85.6703C152.039 86.0251 164.563 78.7768 169.937 72.3818" stroke="#111111" stroke-width="1.07019" stroke-linecap="round" stroke-linejoin="round"/>
<path d="M70.8592 93.6104C68.4025 93.0286 67.5753 92.4414 67.5753 92.4414C70.185 87.6748 66.3425 80.6217 66.3425 80.6217C66.3425 80.6217 67.127 80.3396 69.5659 79.6177C70.5479 79.3267 70.9659 78.7892 71.3306 78.2109C76.9857 83.0431 74.9079 92.7767 73.9029 96.3245C72.606 95.4801 72.7217 94.0521 70.8592 93.6104Z" fill="#111111"/>
<path d="M83.0322 41.6555C81.8645 43.9177 81.1177 46.3723 80.8281 48.9002C84.329 49.3952 87.5186 48.4922 89.4683 47.1263C89.1676 46.9702 85.6258 44.6872 83.0322 41.6555Z" fill="#111111"/>
<path d="M116.583 16.567C120.619 24.4397 119.596 32.0179 117.148 37.306C124.591 37.0186 132.297 14.2946 129.129 14.2644C126.552 14.2414 119.879 15.7545 117.47 16.3204C117.477 16.3328 116.575 16.5528 116.583 16.567Z" fill="#111111"/>
<path d="M179.111 50.5339C180.498 49.3365 180.249 48.5933 179.892 48.2136C179.423 47.7213 179.002 47.1869 178.632 46.6171L177.809 45.331H171.965C171.965 45.331 173.783 40.1192 177.835 39.9454C178.093 39.9347 179.483 40.1103 181.334 40.4917C179.861 37.8628 176.935 36.0693 173.564 36.0693C168.713 36.0693 164.782 39.7768 164.782 44.35C164.782 48.9232 168.713 52.6325 173.564 52.6325C175.278 52.6373 176.958 52.1595 178.412 51.2542C178.619 50.9909 178.854 50.7495 179.111 50.5339Z" fill="#111111"/>
<path d="M95.3353 17.8635L99.2311 20.7195L103.41 21.1914C103.41 21.1914 101.501 30.3608 102.615 42.1238C102.615 42.1238 95.8939 41.6466 88.6929 37.1745" stroke="#111111" stroke-width="1.07019" stroke-linecap="round" stroke-linejoin="round"/>
<path d="M89.833 10.1203C89.833 10.1203 93.1311 6.92726 95.4828 10.39C97.0607 12.7262 95.1946 14.3689 93.8035 15.192" stroke="#111111" stroke-width="1.07019" stroke-linecap="round" stroke-linejoin="round"/>
<path d="M68.5376 22.144C71.3838 25.7841 75.0217 29.0624 78.0405 31.4093" stroke="#111111" stroke-width="1.07019" stroke-linecap="round" stroke-linejoin="round"/>
<path d="M88.7304 12.4691C88.7411 13.5334 90.4435 18.0729 91.5553 19.8646C91.5553 19.8646 86.7861 22.2292 81.6397 27.2743C81.6397 27.2743 78.9305 30.1214 78.1655 31.5672C78.1655 31.5672 83.5769 36.4224 88.4974 36.7985C93.4178 37.1746 97.4097 31.6541 98.0234 27.8206C98.6371 23.9872 98.2369 22.8537 97.0272 20.6433C95.8176 18.433 90.3243 10.3794 90.3243 10.3794L88.7304 12.4691Z" stroke="#111111" stroke-width="1.07019" stroke-linecap="round" stroke-linejoin="round"/>
<path d="M91.2758 12.1054C91.2758 12.1054 90.4148 8.2258 88.5221 5.19594C86.7432 2.34701 83.2405 1.02366 80.0723 2.14301C77.4235 3.08141 76.7813 5.08773 76.7813 5.08773C76.7813 5.08773 75.4222 -0.0265054 69.7102 0.000103474C68.7107 0.0056345 67.7229 0.214415 66.8071 0.613677C65.8914 1.01294 65.0669 1.59429 64.3841 2.32217C63.4253 3.30845 62.7758 4.55232 62.5155 5.90126C62.2551 7.25021 62.3951 8.6456 62.9183 9.91636C62.9183 9.91636 52.3196 6.86697 48.7992 18.5536C48.4434 19.7333 48.728 21.7343 49.0856 22.9121C51.2558 30.0575 65.0726 27.1696 69.8187 23.2669C75.0273 18.9705 77.0037 15.396 77.3541 12.705C76.9112 14.5179 85.3449 20.2885 91.2758 12.1054Z" fill="#111111"/>
<path d="M88.3932 27.6025C88.3932 27.6025 88.1524 29.011 88.0811 30.1996" stroke="#111111" stroke-width="1.42692" stroke-linecap="round" stroke-linejoin="round"/>
<path d="M79.3428 25.6191L83.34 30.5755L84.5016 28.5905" stroke="#111111" stroke-width="1.42692" stroke-linecap="round" stroke-linejoin="round"/>
<path d="M78.16 27.715C78.4121 27.4606 78.2969 26.9396 77.9028 26.5512C77.5087 26.1628 76.9848 26.0541 76.7328 26.3085C76.4807 26.5628 76.5959 27.0839 76.99 27.4723C77.3841 27.8607 77.908 27.9693 78.16 27.715Z" fill="#111111"/>
<path d="M83.2264 23.8139C83.4785 23.5595 83.3633 23.0385 82.9692 22.6501C82.5751 22.2617 82.0512 22.153 81.7992 22.4074C81.5471 22.6617 81.6623 23.1828 82.0564 23.5712C82.4505 23.9596 82.9744 24.0682 83.2264 23.8139Z" fill="#111111"/>
<path d="M81.4171 17.7393C81.4171 18.2714 79.6382 19.4742 77.998 18.8036" stroke="#111111" stroke-width="1.42692" stroke-linecap="round" stroke-linejoin="round"/>
<path d="M73.734 22.967C73.734 22.967 72.133 23.9161 72.8659 25.2731" stroke="#111111" stroke-width="1.42692" stroke-linecap="round" stroke-linejoin="round"/>
<path d="M158.433 32.5393C158.433 32.5393 148.201 34.0507 144.837 41.212" stroke="#111111" stroke-width="1.07019" stroke-linecap="round" stroke-linejoin="round"/>
<path d="M151.628 53.3492C149.552 53.5834 145.199 64.4788 132.137 49.9788" stroke="#111111" stroke-width="1.07019" stroke-linecap="round" stroke-linejoin="round"/>
<path d="M91.6741 48.4656C91.6741 48.4656 89.0342 60.4804 92.5155 65.8252" stroke="#111111" stroke-width="1.07019" stroke-linecap="round" stroke-linejoin="round"/>
<path d="M112.258 41.6182C112.258 41.6182 109.959 56.2832 114.544 62.4671" stroke="#111111" stroke-width="1.07019" stroke-linecap="round" stroke-linejoin="round"/>
<path d="M158.808 45.8596C149.844 45.8596 142.577 54.4224 142.577 64.9843V73.1799H175.039V64.9843C175.039 54.4224 167.772 45.8596 158.808 45.8596Z" fill="#111111"/>
<path fill-rule="evenodd" clip-rule="evenodd" d="M225.252 58.3606L225.151 72.3799L220.94 67.4183L217.206 71.8176V58.3606H225.252Z" fill="#6D6D6D"/>
<path d="M199.873 58.3696H227.746" stroke="#111111" stroke-width="1.07019" stroke-linecap="round" stroke-linejoin="round"/>
<path d="M193.216 45.9962C193.851 46.7838 197.268 51.0732 198.019 52.9411C198.839 55.0007 197.989 55.7883 196.622 55.0911C196.364 54.9636 196.118 54.8134 195.886 54.6423C196.13 55.7947 196.174 56.9804 196.016 58.1476C195.703 60.3633 194.034 60.1397 193.079 58.4048C192.901 60.1451 192.405 60.6559 191.762 60.6471C190.821 60.6347 189.727 60.381 189.774 59.008C188.777 60.1362 186.618 58.5946 186.572 57.0318C186.518 55.3324 186.593 50.9739 185.129 49.113L184.513 48.5223C184.513 48.5223 182.466 52.6555 180.288 53.2409C178.111 53.8263 176.955 52.4036 179.123 50.5357C180.511 49.3383 180.262 48.595 179.904 48.2154C179.436 47.7231 179.014 47.1886 178.645 46.6189L178.157 45.8596H158.808C167.772 45.8596 175.039 54.4649 175.039 65.0819V69.6941H127.571C127.112 69.6941 126.671 69.876 126.347 70.1997C126.022 70.5233 125.84 70.9624 125.84 71.4201V71.4503C125.84 71.9081 126.022 72.3471 126.347 72.6708C126.671 72.9945 127.112 73.1763 127.571 73.1763H173.061V136H183.16V73.3165H207.506V65.0819C207.5 55.2455 201.262 47.1351 193.216 45.9962Z" fill="#6D6D6D"/>
<path d="M195.838 54.6159C196.081 54.798 196.34 54.9572 196.613 55.0913C197.979 55.7885 198.83 55.0008 198.01 52.9413C197.19 50.8818 193.121 45.8722 193.121 45.8722L191.972 44.6517C188.236 41.37 178.566 39.9154 177.844 39.9473C173.79 40.1247 171.974 45.3329 171.974 45.3329H177.817L178.641 46.619C179.01 47.1888 179.432 47.7233 179.9 48.2156C180.256 48.5952 180.507 49.3385 179.119 50.5359C176.951 52.4038 178.107 53.8265 180.285 53.2411C182.462 52.6557 184.51 48.5225 184.51 48.5225L185.472 49.4449" stroke="#111111" stroke-width="1.07019" stroke-linecap="round" stroke-linejoin="round"/>
<path d="M193.37 49.2461C193.674 49.6097 196.667 53.4716 196.007 58.1477C195.717 60.2001 194.261 60.1593 193.292 58.7632" stroke="#111111" stroke-width="1.07019" stroke-linecap="round" stroke-linejoin="round"/>
<path d="M191.056 48.9058C192.286 50.7423 192.992 52.8782 193.098 55.0843C193.324 59.5564 192.694 60.6616 191.753 60.6474C190.812 60.6332 189.718 60.3813 189.765 59.0083" stroke="#111111" stroke-width="1.07019" stroke-linecap="round" stroke-linejoin="round"/>
<path d="M188.532 48.9056C189.259 49.7837 190.538 54.5165 190.234 57.6954C189.93 60.8743 186.619 58.9673 186.559 57.0302C186.502 55.1942 186.594 50.2502 184.732 48.7104" stroke="#111111" stroke-width="1.07019" stroke-linecap="round" stroke-linejoin="round"/>
<path d="M124.533 125.202C123.485 124.507 120.843 125.477 118.047 126.846C118.97 126.164 119.884 125.447 120.736 124.718C124.968 121.094 123.325 118.252 120.914 117.631C119.92 117.374 118.365 118.835 116.305 120.606C118.796 113.402 111.705 110.688 109.937 110.494C109.122 110.402 108.298 110.431 107.492 110.581C105.648 108.19 103.12 105.302 102.407 105.215C100.64 104.999 100.124 112.632 100.094 113.171L98.5179 113.741C98.0448 113.912 97.5915 114.133 97.1659 114.401C95.001 112.627 92.507 110.831 91.8719 110.888C90.3065 111.027 91.123 117.807 91.3987 119.804C91.2054 120.121 91.0411 120.455 90.9077 120.801C90.8366 120.978 90.7779 121.166 90.7298 121.347L79.6455 136H115.184V134.996C116.234 134.641 117.632 134.169 119.632 133.607C125.422 131.98 127.019 126.855 124.533 125.202Z" stroke="#111111" stroke-width="1.07019" stroke-linecap="round" stroke-linejoin="round"/>
<path d="M92.6973 111.731C92.6973 111.731 91.557 113.077 93.5992 118.401" stroke="#111111" stroke-width="1.07019" stroke-linecap="round" stroke-linejoin="round"/>
<path d="M102.606 105.863C102.606 105.863 101.419 110.709 103.14 112.671" stroke="#111111" stroke-width="1.07019" stroke-linecap="round" stroke-linejoin="round"/>
<path d="M103.626 118.324C103.996 118.127 104.043 117.495 103.73 116.911C103.417 116.328 102.864 116.015 102.494 116.212C102.124 116.41 102.078 117.042 102.39 117.625C102.703 118.209 103.256 118.522 103.626 118.324Z" fill="#111111"/>
<path d="M109.034 116.161C109.404 115.963 109.451 115.331 109.138 114.748C108.826 114.164 108.272 113.851 107.902 114.049C107.532 114.246 107.486 114.878 107.798 115.462C108.111 116.045 108.664 116.358 109.034 116.161Z" fill="#111111"/>
<path d="M108.156 117.663L107.622 118.892C107.579 118.981 107.506 119.052 107.415 119.092C107.325 119.132 107.223 119.139 107.128 119.112L105.895 118.757C105.6 118.672 105.591 118.314 105.881 118.172L107.646 117.299C107.952 117.143 108.279 117.379 108.156 117.663Z" fill="#111111"/>
<path d="M107.302 118.635C107.658 119.295 108.748 119.699 109.821 119.699" stroke="#111111" stroke-width="1.07019" stroke-linecap="round" stroke-linejoin="round"/>
<path d="M107.34 118.617C107.696 119.277 107.518 120.159 106.756 121.076" stroke="#111111" stroke-width="1.07019" stroke-linecap="round" stroke-linejoin="round"/>
<path d="M101.83 120.579C101.83 120.579 95.168 118.477 91.3345 124.319" stroke="#111111" stroke-width="1.07019" stroke-linecap="round" stroke-linejoin="round"/>
<path d="M102.269 121.413C102.269 121.413 95.3316 120.622 92.6846 127.089" stroke="#111111" stroke-width="1.07019" stroke-linecap="round" stroke-linejoin="round"/>
<path d="M116.563 119.701C116.104 121.841 112.719 131.478 100.339 130.492" stroke="#111111" stroke-width="1.07019" stroke-linecap="round" stroke-linejoin="round"/>
<path d="M1 136H271" stroke="#111111" stroke-width="1.07019" stroke-linecap="round" stroke-linejoin="round"/>
</svg>
