<svg width="323" height="80" viewBox="0 0 323 80" fill="none" xmlns="http://www.w3.org/2000/svg">
<g clip-path="url(#clip0_147_220)">
<rect width="323" height="80" rx="16" fill="#212134"/>
<path d="M28.955 46.135C27.895 46.135 26.985 45.915 26.225 45.475C25.475 45.035 24.9 44.41 24.5 43.6C24.1 42.78 23.9 41.815 23.9 40.705C23.9 39.595 24.1 38.635 24.5 37.825C24.9 37.015 25.475 36.39 26.225 35.95C26.985 35.51 27.895 35.29 28.955 35.29C29.715 35.29 30.39 35.405 30.98 35.635C31.57 35.855 32.085 36.18 32.525 36.61L32.015 37.735C31.535 37.315 31.06 37.015 30.59 36.835C30.13 36.645 29.595 36.55 28.985 36.55C27.815 36.55 26.92 36.91 26.3 37.63C25.68 38.35 25.37 39.375 25.37 40.705C25.37 42.035 25.68 43.065 26.3 43.795C26.92 44.515 27.815 44.875 28.985 44.875C29.595 44.875 30.13 44.785 30.59 44.605C31.06 44.415 31.535 44.11 32.015 43.69L32.525 44.8C32.085 45.23 31.565 45.56 30.965 45.79C30.375 46.02 29.705 46.135 28.955 46.135ZM36.9178 46.135C36.0078 46.135 35.3228 45.89 34.8628 45.4C34.4128 44.91 34.1878 44.155 34.1878 43.135V38.455H35.5528V43.105C35.5528 43.765 35.6878 44.25 35.9578 44.56C36.2278 44.87 36.6478 45.025 37.2178 45.025C37.8378 45.025 38.3378 44.82 38.7178 44.41C39.1078 43.99 39.3028 43.435 39.3028 42.745V38.455H40.6678V46H39.3478V44.335H39.5428C39.3328 44.905 38.9978 45.35 38.5378 45.67C38.0778 45.98 37.5378 46.135 36.9178 46.135ZM45.5132 46.135C44.9032 46.135 44.3332 46.055 43.8032 45.895C43.2832 45.735 42.8532 45.505 42.5132 45.205L42.9482 44.26C43.3182 44.54 43.7232 44.755 44.1632 44.905C44.6132 45.045 45.0732 45.115 45.5432 45.115C46.1132 45.115 46.5432 45.01 46.8332 44.8C47.1332 44.59 47.2832 44.31 47.2832 43.96C47.2832 43.68 47.1882 43.455 46.9982 43.285C46.8082 43.115 46.5082 42.99 46.0982 42.91L44.6732 42.625C44.0332 42.475 43.5482 42.235 43.2182 41.905C42.8982 41.565 42.7382 41.13 42.7382 40.6C42.7382 40.16 42.8582 39.77 43.0982 39.43C43.3382 39.08 43.6782 38.81 44.1182 38.62C44.5682 38.42 45.0932 38.32 45.6932 38.32C46.2432 38.32 46.7532 38.4 47.2232 38.56C47.7032 38.72 48.0982 38.955 48.4082 39.265L47.9582 40.18C47.6482 39.91 47.2982 39.705 46.9082 39.565C46.5282 39.415 46.1382 39.34 45.7382 39.34C45.1582 39.34 44.7282 39.455 44.4482 39.685C44.1682 39.905 44.0282 40.195 44.0282 40.555C44.0282 40.825 44.1132 41.05 44.2832 41.23C44.4532 41.4 44.7282 41.53 45.1082 41.62L46.5332 41.905C47.2032 42.045 47.7082 42.275 48.0482 42.595C48.3882 42.915 48.5582 43.34 48.5582 43.87C48.5582 44.34 48.4282 44.745 48.1682 45.085C47.9182 45.425 47.5632 45.685 47.1032 45.865C46.6532 46.045 46.1232 46.135 45.5132 46.135ZM53.1661 46.135C52.3761 46.135 51.7761 45.92 51.3661 45.49C50.9661 45.05 50.7661 44.39 50.7661 43.51V39.505H49.2961V38.455H50.7661V36.43L52.1311 36.055V38.455H54.2611V39.505H52.1311V43.39C52.1311 43.97 52.2311 44.385 52.4311 44.635C52.6411 44.875 52.9411 44.995 53.3311 44.995C53.5311 44.995 53.7011 44.98 53.8411 44.95C53.9911 44.91 54.1261 44.865 54.2461 44.815V45.94C54.0961 46 53.9211 46.045 53.7211 46.075C53.5311 46.115 53.3461 46.135 53.1661 46.135ZM58.7995 46.135C58.0595 46.135 57.4195 45.98 56.8795 45.67C56.3395 45.35 55.9195 44.9 55.6195 44.32C55.3195 43.73 55.1695 43.03 55.1695 42.22C55.1695 41.42 55.3195 40.73 55.6195 40.15C55.9195 39.56 56.3395 39.11 56.8795 38.8C57.4195 38.48 58.0595 38.32 58.7995 38.32C59.5395 38.32 60.1795 38.48 60.7195 38.8C61.2695 39.11 61.6895 39.56 61.9795 40.15C62.2795 40.73 62.4295 41.42 62.4295 42.22C62.4295 43.03 62.2795 43.73 61.9795 44.32C61.6895 44.9 61.2695 45.35 60.7195 45.67C60.1795 45.98 59.5395 46.135 58.7995 46.135ZM58.7995 45.055C59.4795 45.055 60.0245 44.815 60.4345 44.335C60.8445 43.855 61.0495 43.15 61.0495 42.22C61.0495 41.29 60.8445 40.59 60.4345 40.12C60.0245 39.65 59.4795 39.415 58.7995 39.415C58.1095 39.415 57.5595 39.65 57.1495 40.12C56.7495 40.59 56.5495 41.29 56.5495 42.22C56.5495 43.15 56.7495 43.855 57.1495 44.335C57.5595 44.815 58.1095 45.055 58.7995 45.055ZM64.2621 46V40.24C64.2621 39.95 64.2521 39.655 64.2321 39.355C64.2121 39.055 64.1821 38.755 64.1421 38.455H65.4621L65.6121 40.075H65.4321C65.6321 39.515 65.9521 39.085 66.3921 38.785C66.8321 38.475 67.3571 38.32 67.9671 38.32C68.5871 38.32 69.0971 38.47 69.4971 38.77C69.8971 39.06 70.1671 39.52 70.3071 40.15H70.0821C70.2721 39.59 70.6071 39.145 71.0871 38.815C71.5671 38.485 72.1271 38.32 72.7671 38.32C73.5971 38.32 74.2221 38.565 74.6421 39.055C75.0621 39.535 75.2721 40.285 75.2721 41.305V46H73.9071V41.38C73.9071 40.69 73.7871 40.195 73.5471 39.895C73.3071 39.585 72.9271 39.43 72.4071 39.43C71.7971 39.43 71.3171 39.64 70.9671 40.06C70.6171 40.47 70.4421 41.03 70.4421 41.74V46H69.0771V41.38C69.0771 40.69 68.9571 40.195 68.7171 39.895C68.4871 39.585 68.1071 39.43 67.5771 39.43C66.9671 39.43 66.4871 39.64 66.1371 40.06C65.7971 40.47 65.6271 41.03 65.6271 41.74V46H64.2621ZM77.5043 46V38.455H78.8693V46H77.5043ZM77.3843 36.805V35.335H79.0043V36.805H77.3843ZM80.7467 46V45.085L85.7567 39.16V39.505H80.7467V38.455H87.0167V39.37L81.9767 45.325L81.9617 44.95H87.1817V46H80.7467ZM92.2332 46.135C91.0332 46.135 90.0832 45.79 89.3832 45.1C88.6932 44.41 88.3482 43.46 88.3482 42.25C88.3482 41.45 88.4982 40.76 88.7982 40.18C89.1082 39.59 89.5332 39.135 90.0732 38.815C90.6132 38.485 91.2432 38.32 91.9632 38.32C92.6532 38.32 93.2382 38.47 93.7182 38.77C94.1982 39.06 94.5632 39.475 94.8132 40.015C95.0632 40.555 95.1882 41.195 95.1882 41.935V42.385H89.4132V41.575H94.2582L94.0032 41.77C94.0032 40.99 93.8282 40.385 93.4782 39.955C93.1382 39.525 92.6332 39.31 91.9632 39.31C91.2332 39.31 90.6682 39.565 90.2682 40.075C89.8682 40.575 89.6682 41.26 89.6682 42.13V42.265C89.6682 43.185 89.8932 43.88 90.3432 44.35C90.8032 44.82 91.4382 45.055 92.2482 45.055C92.6982 45.055 93.1182 44.99 93.5082 44.86C93.8982 44.73 94.2732 44.515 94.6332 44.215L95.0832 45.16C94.7432 45.47 94.3182 45.71 93.8082 45.88C93.3082 46.05 92.7832 46.135 92.2332 46.135ZM100.672 49.405L100.357 48.295C100.827 48.185 101.217 48.055 101.527 47.905C101.837 47.765 102.097 47.58 102.307 47.35C102.517 47.12 102.702 46.83 102.862 46.48L103.237 45.58L103.207 46.15L99.9221 38.455H101.392L104.017 44.92H103.627L106.252 38.455H107.662L104.197 46.585C103.987 47.075 103.757 47.485 103.507 47.815C103.267 48.145 103.002 48.415 102.712 48.625C102.432 48.835 102.122 49 101.782 49.12C101.442 49.24 101.072 49.335 100.672 49.405ZM112.003 46.135C111.263 46.135 110.623 45.98 110.083 45.67C109.543 45.35 109.123 44.9 108.823 44.32C108.523 43.73 108.373 43.03 108.373 42.22C108.373 41.42 108.523 40.73 108.823 40.15C109.123 39.56 109.543 39.11 110.083 38.8C110.623 38.48 111.263 38.32 112.003 38.32C112.743 38.32 113.383 38.48 113.923 38.8C114.473 39.11 114.893 39.56 115.183 40.15C115.483 40.73 115.633 41.42 115.633 42.22C115.633 43.03 115.483 43.73 115.183 44.32C114.893 44.9 114.473 45.35 113.923 45.67C113.383 45.98 112.743 46.135 112.003 46.135ZM112.003 45.055C112.683 45.055 113.228 44.815 113.638 44.335C114.048 43.855 114.253 43.15 114.253 42.22C114.253 41.29 114.048 40.59 113.638 40.12C113.228 39.65 112.683 39.415 112.003 39.415C111.313 39.415 110.763 39.65 110.353 40.12C109.953 40.59 109.753 41.29 109.753 42.22C109.753 43.15 109.953 43.855 110.353 44.335C110.763 44.815 111.313 45.055 112.003 45.055ZM120.15 46.135C119.24 46.135 118.555 45.89 118.095 45.4C117.645 44.91 117.42 44.155 117.42 43.135V38.455H118.785V43.105C118.785 43.765 118.92 44.25 119.19 44.56C119.46 44.87 119.88 45.025 120.45 45.025C121.07 45.025 121.57 44.82 121.95 44.41C122.34 43.99 122.535 43.435 122.535 42.745V38.455H123.9V46H122.58V44.335H122.775C122.565 44.905 122.23 45.35 121.77 45.67C121.31 45.98 120.77 46.135 120.15 46.135ZM126.181 46V40.3C126.181 40 126.171 39.695 126.151 39.385C126.141 39.065 126.116 38.755 126.076 38.455H127.396L127.561 40.345L127.336 40.36C127.436 39.9 127.606 39.52 127.846 39.22C128.096 38.91 128.391 38.685 128.731 38.545C129.081 38.395 129.441 38.32 129.811 38.32C129.971 38.32 130.106 38.325 130.216 38.335C130.326 38.345 130.436 38.37 130.546 38.41L130.516 39.625C130.366 39.565 130.226 39.53 130.096 39.52C129.976 39.5 129.826 39.49 129.646 39.49C129.206 39.49 128.826 39.59 128.506 39.79C128.196 39.99 127.956 40.255 127.786 40.585C127.626 40.915 127.546 41.27 127.546 41.65V46H126.181ZM139.138 46.135C137.938 46.135 136.988 45.79 136.288 45.1C135.598 44.41 135.253 43.46 135.253 42.25C135.253 41.45 135.403 40.76 135.703 40.18C136.013 39.59 136.438 39.135 136.978 38.815C137.518 38.485 138.148 38.32 138.868 38.32C139.558 38.32 140.143 38.47 140.623 38.77C141.103 39.06 141.468 39.475 141.718 40.015C141.968 40.555 142.093 41.195 142.093 41.935V42.385H136.318V41.575H141.163L140.908 41.77C140.908 40.99 140.733 40.385 140.383 39.955C140.043 39.525 139.538 39.31 138.868 39.31C138.138 39.31 137.573 39.565 137.173 40.075C136.773 40.575 136.573 41.26 136.573 42.13V42.265C136.573 43.185 136.798 43.88 137.248 44.35C137.708 44.82 138.343 45.055 139.153 45.055C139.603 45.055 140.023 44.99 140.413 44.86C140.803 44.73 141.178 44.515 141.538 44.215L141.988 45.16C141.648 45.47 141.223 45.71 140.713 45.88C140.213 46.05 139.688 46.135 139.138 46.135ZM142.768 46L146.188 41.77V42.445L142.963 38.455H144.598L146.953 41.47H146.458L148.813 38.455H150.433L147.253 42.415V41.8L150.628 46H148.978L146.458 42.775H146.953L144.403 46H142.768ZM151.889 49.24V40.24C151.889 39.95 151.879 39.655 151.859 39.355C151.839 39.055 151.809 38.755 151.769 38.455H153.089L153.254 40.195H153.089C153.239 39.615 153.559 39.16 154.049 38.83C154.539 38.49 155.124 38.32 155.804 38.32C156.474 38.32 157.059 38.475 157.559 38.785C158.059 39.095 158.444 39.545 158.714 40.135C158.994 40.715 159.134 41.41 159.134 42.22C159.134 43.03 158.994 43.73 158.714 44.32C158.444 44.91 158.059 45.36 157.559 45.67C157.059 45.98 156.474 46.135 155.804 46.135C155.134 46.135 154.554 45.97 154.064 45.64C153.584 45.3 153.259 44.845 153.089 44.275H153.254V49.24H151.889ZM155.489 45.055C156.179 45.055 156.729 44.815 157.139 44.335C157.549 43.855 157.754 43.15 157.754 42.22C157.754 41.29 157.549 40.59 157.139 40.12C156.729 39.65 156.179 39.415 155.489 39.415C154.799 39.415 154.249 39.65 153.839 40.12C153.439 40.59 153.239 41.29 153.239 42.22C153.239 43.15 153.439 43.855 153.839 44.335C154.249 44.815 154.799 45.055 155.489 45.055ZM164.406 46.135C163.206 46.135 162.256 45.79 161.556 45.1C160.866 44.41 160.521 43.46 160.521 42.25C160.521 41.45 160.671 40.76 160.971 40.18C161.281 39.59 161.706 39.135 162.246 38.815C162.786 38.485 163.416 38.32 164.136 38.32C164.826 38.32 165.411 38.47 165.891 38.77C166.371 39.06 166.736 39.475 166.986 40.015C167.236 40.555 167.361 41.195 167.361 41.935V42.385H161.586V41.575H166.431L166.176 41.77C166.176 40.99 166.001 40.385 165.651 39.955C165.311 39.525 164.806 39.31 164.136 39.31C163.406 39.31 162.841 39.565 162.441 40.075C162.041 40.575 161.841 41.26 161.841 42.13V42.265C161.841 43.185 162.066 43.88 162.516 44.35C162.976 44.82 163.611 45.055 164.421 45.055C164.871 45.055 165.291 44.99 165.681 44.86C166.071 44.73 166.446 44.515 166.806 44.215L167.256 45.16C166.916 45.47 166.491 45.71 165.981 45.88C165.481 46.05 164.956 46.135 164.406 46.135ZM169.13 46V40.3C169.13 40 169.12 39.695 169.1 39.385C169.09 39.065 169.065 38.755 169.025 38.455H170.345L170.51 40.345L170.285 40.36C170.385 39.9 170.555 39.52 170.795 39.22C171.045 38.91 171.34 38.685 171.68 38.545C172.03 38.395 172.39 38.32 172.76 38.32C172.92 38.32 173.055 38.325 173.165 38.335C173.275 38.345 173.385 38.37 173.495 38.41L173.465 39.625C173.315 39.565 173.175 39.53 173.045 39.52C172.925 39.5 172.775 39.49 172.595 39.49C172.155 39.49 171.775 39.59 171.455 39.79C171.145 39.99 170.905 40.255 170.735 40.585C170.575 40.915 170.495 41.27 170.495 41.65V46H169.13ZM174.697 46V38.455H176.062V46H174.697ZM174.577 36.805V35.335H176.197V36.805H174.577ZM181.779 46.135C180.579 46.135 179.629 45.79 178.929 45.1C178.239 44.41 177.894 43.46 177.894 42.25C177.894 41.45 178.044 40.76 178.344 40.18C178.654 39.59 179.079 39.135 179.619 38.815C180.159 38.485 180.789 38.32 181.509 38.32C182.199 38.32 182.784 38.47 183.264 38.77C183.744 39.06 184.109 39.475 184.359 40.015C184.609 40.555 184.734 41.195 184.734 41.935V42.385H178.959V41.575H183.804L183.549 41.77C183.549 40.99 183.374 40.385 183.024 39.955C182.684 39.525 182.179 39.31 181.509 39.31C180.779 39.31 180.214 39.565 179.814 40.075C179.414 40.575 179.214 41.26 179.214 42.13V42.265C179.214 43.185 179.439 43.88 179.889 44.35C180.349 44.82 180.984 45.055 181.794 45.055C182.244 45.055 182.664 44.99 183.054 44.86C183.444 44.73 183.819 44.515 184.179 44.215L184.629 45.16C184.289 45.47 183.864 45.71 183.354 45.88C182.854 46.05 182.329 46.135 181.779 46.135ZM186.518 46V40.24C186.518 39.95 186.508 39.655 186.488 39.355C186.468 39.055 186.438 38.755 186.398 38.455H187.718L187.868 40.075H187.688C187.918 39.505 188.273 39.07 188.753 38.77C189.233 38.47 189.793 38.32 190.433 38.32C191.323 38.32 191.993 38.565 192.443 39.055C192.893 39.535 193.118 40.285 193.118 41.305V46H191.753V41.38C191.753 40.69 191.618 40.195 191.348 39.895C191.078 39.585 190.658 39.43 190.088 39.43C189.408 39.43 188.868 39.635 188.468 40.045C188.078 40.455 187.883 41.01 187.883 41.71V46H186.518ZM198.591 46.135C197.841 46.135 197.191 45.98 196.641 45.67C196.091 45.35 195.661 44.895 195.351 44.305C195.051 43.705 194.901 42.995 194.901 42.175C194.901 41.365 195.056 40.675 195.366 40.105C195.676 39.525 196.106 39.085 196.656 38.785C197.206 38.475 197.851 38.32 198.591 38.32C199.081 38.32 199.556 38.405 200.016 38.575C200.476 38.735 200.851 38.97 201.141 39.28L200.676 40.24C200.386 39.96 200.066 39.755 199.716 39.625C199.366 39.485 199.021 39.415 198.681 39.415C197.941 39.415 197.361 39.655 196.941 40.135C196.521 40.605 196.311 41.29 196.311 42.19C196.311 43.1 196.521 43.8 196.941 44.29C197.361 44.78 197.941 45.025 198.681 45.025C199.011 45.025 199.351 44.96 199.701 44.83C200.051 44.7 200.376 44.495 200.676 44.215L201.141 45.16C200.841 45.48 200.456 45.725 199.986 45.895C199.526 46.055 199.061 46.135 198.591 46.135ZM206.096 46.135C204.896 46.135 203.946 45.79 203.246 45.1C202.556 44.41 202.211 43.46 202.211 42.25C202.211 41.45 202.361 40.76 202.661 40.18C202.971 39.59 203.396 39.135 203.936 38.815C204.476 38.485 205.106 38.32 205.826 38.32C206.516 38.32 207.101 38.47 207.581 38.77C208.061 39.06 208.426 39.475 208.676 40.015C208.926 40.555 209.051 41.195 209.051 41.935V42.385H203.276V41.575H208.121L207.866 41.77C207.866 40.99 207.691 40.385 207.341 39.955C207.001 39.525 206.496 39.31 205.826 39.31C205.096 39.31 204.531 39.565 204.131 40.075C203.731 40.575 203.531 41.26 203.531 42.13V42.265C203.531 43.185 203.756 43.88 204.206 44.35C204.666 44.82 205.301 45.055 206.111 45.055C206.561 45.055 206.981 44.99 207.371 44.86C207.761 44.73 208.136 44.515 208.496 44.215L208.946 45.16C208.606 45.47 208.181 45.71 207.671 45.88C207.171 46.05 206.646 46.135 206.096 46.135Z" fill="white"/>
<path d="M332.363 31.7422H261.599V90.6813H332.363V31.7422Z" fill="#F19434"/>
<path d="M332.401 81.4168V90.6813H261.599V31.7422H332.401V62.2098" stroke="#35363A" stroke-miterlimit="10" stroke-linecap="round" stroke-linejoin="round"/>
<path d="M278.245 50.083H269.319V59.0086H278.245V50.083Z" fill="white"/>
<path d="M324.68 50.083H315.754V59.0086H324.68V50.083Z" fill="white"/>
<path d="M306.151 90.6813H287.811V66.1265C287.811 61.0799 291.916 56.9749 296.962 56.9749C302.009 56.9749 306.114 61.0799 306.114 66.1265V90.6813H306.151Z" fill="white"/>
<path d="M278.245 50.083H269.319V59.0086H278.245V50.083Z" stroke="#35363A" stroke-miterlimit="10" stroke-linecap="round" stroke-linejoin="round"/>
<path d="M324.68 50.083H315.754V59.0086H324.68V50.083Z" stroke="#35363A" stroke-miterlimit="10" stroke-linecap="round" stroke-linejoin="round"/>
<path d="M306.151 90.6813H287.811V66.1265C287.811 61.0799 291.916 56.9749 296.962 56.9749C302.009 56.9749 306.114 61.0799 306.114 66.1265V90.6813H306.151Z" stroke="#35363A" stroke-miterlimit="10" stroke-linecap="round" stroke-linejoin="round"/>
<path d="M263.218 39.6133C260.883 39.6133 259 37.7303 259 35.3953V16H267.436V35.3953C267.436 37.7303 265.553 39.6133 263.218 39.6133Z" fill="white"/>
<path d="M271.654 39.6133C269.319 39.6133 267.436 37.7303 267.436 35.3953V16H275.872V35.3953C275.872 37.7303 273.989 39.6133 271.654 39.6133Z" fill="#FEC401"/>
<path d="M280.09 39.6133C277.755 39.6133 275.872 37.7303 275.872 35.3953V16H284.308V35.3953C284.308 37.7303 282.425 39.6133 280.09 39.6133Z" fill="white"/>
<path d="M288.564 39.6133C286.229 39.6133 284.346 37.7303 284.346 35.3953V16H292.782V35.3953C292.782 37.7303 290.899 39.6133 288.564 39.6133Z" fill="#FEC401"/>
<path d="M297 39.6133C294.665 39.6133 292.782 37.7303 292.782 35.3953V16H301.218V35.3953C301.218 37.7303 299.335 39.6133 297 39.6133Z" fill="white"/>
<path d="M305.436 39.6133C303.101 39.6133 301.218 37.7303 301.218 35.3953V16H309.654V35.3953C309.691 37.7303 307.771 39.6133 305.436 39.6133Z" fill="#FEC401"/>
<path d="M313.909 39.6133C311.574 39.6133 309.691 37.7303 309.691 35.3953V16H318.127V35.3953C318.127 37.7303 316.244 39.6133 313.909 39.6133Z" fill="white"/>
<path d="M322.345 39.6133C320.01 39.6133 318.127 37.7303 318.127 35.3953V16H326.563V35.3953C326.563 37.7303 324.68 39.6133 322.345 39.6133Z" fill="#FEC401"/>
<path d="M263.218 39.6133C260.883 39.6133 259 37.7303 259 35.3953V16H267.436V35.3953C267.436 37.7303 265.553 39.6133 263.218 39.6133Z" stroke="#35363A" stroke-miterlimit="10" stroke-linecap="round" stroke-linejoin="round"/>
<path d="M271.654 39.6133C269.319 39.6133 267.436 37.7303 267.436 35.3953V16H275.872V35.3953C275.872 37.7303 273.989 39.6133 271.654 39.6133Z" fill="#F19434" stroke="#35363A" stroke-miterlimit="10" stroke-linecap="round" stroke-linejoin="round"/>
<path d="M280.09 39.6133C277.755 39.6133 275.872 37.7303 275.872 35.3953V16H284.308V35.3953C284.308 37.7303 282.425 39.6133 280.09 39.6133Z" stroke="#35363A" stroke-miterlimit="10" stroke-linecap="round" stroke-linejoin="round"/>
<path d="M288.564 39.6133C286.229 39.6133 284.346 37.7303 284.346 35.3953V16H292.782V35.3953C292.782 37.7303 290.899 39.6133 288.564 39.6133Z" fill="#F19434" stroke="#35363A" stroke-miterlimit="10" stroke-linecap="round" stroke-linejoin="round"/>
<path d="M297 39.6133C294.665 39.6133 292.782 37.7303 292.782 35.3953V16H301.218V35.3953C301.218 37.7303 299.335 39.6133 297 39.6133Z" stroke="#35363A" stroke-miterlimit="10" stroke-linecap="round" stroke-linejoin="round"/>
<path d="M305.436 39.6133C303.101 39.6133 301.218 37.7303 301.218 35.3953V16H309.654V35.3953C309.691 37.7303 307.771 39.6133 305.436 39.6133Z" fill="#F19434" stroke="#35363A" stroke-miterlimit="10" stroke-linecap="round" stroke-linejoin="round"/>
<path d="M313.909 39.6133C311.574 39.6133 309.691 37.7303 309.691 35.3953V16H318.127V35.3953C318.127 37.7303 316.244 39.6133 313.909 39.6133Z" stroke="#35363A" stroke-miterlimit="10" stroke-linecap="round" stroke-linejoin="round"/>
<path d="M322.345 39.6133C320.01 39.6133 318.127 37.7303 318.127 35.3953V16H326.563V35.3953C326.563 37.7303 324.68 39.6133 322.345 39.6133Z" fill="#F19434" stroke="#35363A" stroke-miterlimit="10" stroke-linecap="round" stroke-linejoin="round"/>
</g>
<defs>
<clipPath id="clip0_147_220">
<rect width="323" height="80" rx="16" fill="white"/>
</clipPath>
</defs>
</svg>
