<svg width="65" height="65" viewBox="0 0 65 65" fill="none" xmlns="http://www.w3.org/2000/svg">
<path d="M74.3632 16.7422H3.59863V75.6813H74.3632V16.7422Z" fill="#F19434"/>
<path d="M74.4009 66.4168V75.6813H3.59863V16.7422H74.4009V47.2098" stroke="#35363A" stroke-miterlimit="10" stroke-linecap="round" stroke-linejoin="round"/>
<path d="M20.2449 35.083H11.3193V44.0086H20.2449V35.083Z" fill="white"/>
<path d="M66.68 35.083H57.7544V44.0086H66.68V35.083Z" fill="white"/>
<path d="M48.1513 75.6813H29.8105V51.1265C29.8105 46.0799 33.9156 41.9749 38.9621 41.9749C44.0087 41.9749 48.1137 46.0799 48.1137 51.1265V75.6813H48.1513Z" fill="white"/>
<path d="M20.2449 35.083H11.3193V44.0086H20.2449V35.083Z" stroke="#35363A" stroke-miterlimit="10" stroke-linecap="round" stroke-linejoin="round"/>
<path d="M66.68 35.083H57.7544V44.0086H66.68V35.083Z" stroke="#35363A" stroke-miterlimit="10" stroke-linecap="round" stroke-linejoin="round"/>
<path d="M48.1513 75.6813H29.8105V51.1265C29.8105 46.0799 33.9156 41.9749 38.9621 41.9749C44.0087 41.9749 48.1137 46.0799 48.1137 51.1265V75.6813H48.1513Z" stroke="#35363A" stroke-miterlimit="10" stroke-linecap="round" stroke-linejoin="round"/>
<path d="M5.21799 24.6133C2.88302 24.6133 1 22.7303 1 20.3953V1H9.43602V20.3953C9.43602 22.7303 7.55296 24.6133 5.21799 24.6133Z" fill="white"/>
<path d="M13.654 24.6133C11.3191 24.6133 9.43604 22.7303 9.43604 20.3953V1H17.8721V20.3953C17.8721 22.7303 15.989 24.6133 13.654 24.6133Z" fill="#FEC401"/>
<path d="M22.0901 24.6133C19.7551 24.6133 17.8721 22.7303 17.8721 20.3953V1H26.308V20.3953C26.308 22.7303 24.425 24.6133 22.0901 24.6133Z" fill="white"/>
<path d="M30.5637 24.6133C28.2287 24.6133 26.3457 22.7303 26.3457 20.3953V1H34.7817V20.3953C34.7817 22.7303 32.8987 24.6133 30.5637 24.6133Z" fill="#FEC401"/>
<path d="M38.9998 24.6133C36.6648 24.6133 34.7817 22.7303 34.7817 20.3953V1H43.2178V20.3953C43.2178 22.7303 41.3347 24.6133 38.9998 24.6133Z" fill="white"/>
<path d="M47.4358 24.6133C45.1008 24.6133 43.2178 22.7303 43.2178 20.3953V1H51.6538V20.3953C51.6915 22.7303 49.7708 24.6133 47.4358 24.6133Z" fill="#FEC401"/>
<path d="M55.9094 24.6133C53.5745 24.6133 51.6914 22.7303 51.6914 20.3953V1H60.1274V20.3953C60.1274 22.7303 58.2444 24.6133 55.9094 24.6133Z" fill="white"/>
<path d="M64.3454 24.6133C62.0105 24.6133 60.1274 22.7303 60.1274 20.3953V1H68.5635V20.3953C68.5635 22.7303 66.6804 24.6133 64.3454 24.6133Z" fill="#FEC401"/>
<path d="M5.21799 24.6133C2.88302 24.6133 1 22.7303 1 20.3953V1H9.43602V20.3953C9.43602 22.7303 7.55296 24.6133 5.21799 24.6133Z" stroke="#35363A" stroke-miterlimit="10" stroke-linecap="round" stroke-linejoin="round"/>
<path d="M13.654 24.6133C11.3191 24.6133 9.43604 22.7303 9.43604 20.3953V1H17.8721V20.3953C17.8721 22.7303 15.989 24.6133 13.654 24.6133Z" fill="#F19434" stroke="#35363A" stroke-miterlimit="10" stroke-linecap="round" stroke-linejoin="round"/>
<path d="M22.0901 24.6133C19.7551 24.6133 17.8721 22.7303 17.8721 20.3953V1H26.308V20.3953C26.308 22.7303 24.425 24.6133 22.0901 24.6133Z" stroke="#35363A" stroke-miterlimit="10" stroke-linecap="round" stroke-linejoin="round"/>
<path d="M30.5637 24.6133C28.2287 24.6133 26.3457 22.7303 26.3457 20.3953V1H34.7817V20.3953C34.7817 22.7303 32.8987 24.6133 30.5637 24.6133Z" fill="#F19434" stroke="#35363A" stroke-miterlimit="10" stroke-linecap="round" stroke-linejoin="round"/>
<path d="M38.9998 24.6133C36.6648 24.6133 34.7817 22.7303 34.7817 20.3953V1H43.2178V20.3953C43.2178 22.7303 41.3347 24.6133 38.9998 24.6133Z" stroke="#35363A" stroke-miterlimit="10" stroke-linecap="round" stroke-linejoin="round"/>
<path d="M47.4358 24.6133C45.1008 24.6133 43.2178 22.7303 43.2178 20.3953V1H51.6538V20.3953C51.6915 22.7303 49.7708 24.6133 47.4358 24.6133Z" fill="#F19434" stroke="#35363A" stroke-miterlimit="10" stroke-linecap="round" stroke-linejoin="round"/>
<path d="M55.9094 24.6133C53.5745 24.6133 51.6914 22.7303 51.6914 20.3953V1H60.1274V20.3953C60.1274 22.7303 58.2444 24.6133 55.9094 24.6133Z" stroke="#35363A" stroke-miterlimit="10" stroke-linecap="round" stroke-linejoin="round"/>
<path d="M64.3454 24.6133C62.0105 24.6133 60.1274 22.7303 60.1274 20.3953V1H68.5635V20.3953C68.5635 22.7303 66.6804 24.6133 64.3454 24.6133Z" fill="#F19434" stroke="#35363A" stroke-miterlimit="10" stroke-linecap="round" stroke-linejoin="round"/>
</svg>
