<svg width="112" height="125" viewBox="0 0 112 125" fill="none" xmlns="http://www.w3.org/2000/svg">
<path d="M70.2602 67.0399V72.5599C70.2602 79.9199 80.8402 83.1399 80.8402 83.1399C80.8402 83.1399 68.6502 92.3399 56.0002 92.3399C43.3502 92.3399 31.1602 83.1399 31.1602 83.1399C31.1602 83.1399 41.8234 79.9199 41.7402 72.5599C41.6569 65.1999 41.7126 60.8759 41.6569 48.2664C35.0642 39.721 35.4874 33.9857 39.0924 29.9524C51.1702 16.4399 84.0602 21.0399 84.0602 21.0399C84.0602 21.0399 87.1293 54.1567 80.1502 63.8199C77.1602 67.9599 70.2602 67.0399 70.2602 67.0399Z" fill="url(#paint0_linear_377_6)"/>
<path style="mix-blend-mode:multiply" opacity="0.6" d="M70.2602 67.04C60.1402 65.89 54.1602 61.52 54.1602 61.52C57.9356 67.1055 63.6894 71.051 70.2602 72.56V67.04Z" fill="url(#paint1_linear_377_6)"/>
<path d="M104.3 97.0817C108.679 105.986 111.2 126.522 111.2 126.522H0.800049C0.800049 126.522 3.32177 105.984 7.70005 97.0817C12.0783 88.1797 37.646 79.9232 37.646 79.9232C42.574 90.04 69.6197 90.04 74.3407 79.92C74.3407 79.92 99.9208 88.1774 104.3 97.0817Z" fill="url(#paint2_linear_377_6)"/>
<path d="M54.1602 114.88C54.1602 114.516 54.2681 114.16 54.4703 113.858C54.6724 113.555 54.9598 113.319 55.296 113.18C55.6322 113.041 56.0022 113.004 56.3591 113.075C56.716 113.146 57.0439 113.322 57.3012 113.579C57.5586 113.836 57.7338 114.164 57.8048 114.521C57.8758 114.878 57.8394 115.248 57.7001 115.584C57.5608 115.92 57.325 116.208 57.0224 116.41C56.7198 116.612 56.3641 116.72 56.0002 116.72C55.5122 116.72 55.0441 116.526 54.6991 116.181C54.354 115.836 54.1602 115.368 54.1602 114.88ZM54.1602 105.68C54.1602 105.316 54.2681 104.96 54.4703 104.658C54.6724 104.355 54.9598 104.119 55.296 103.98C55.6322 103.841 56.0022 103.804 56.3591 103.875C56.716 103.946 57.0439 104.122 57.3012 104.379C57.5586 104.636 57.7338 104.964 57.8048 105.321C57.8758 105.678 57.8394 106.048 57.7001 106.384C57.5608 106.72 57.325 107.008 57.0224 107.21C56.7198 107.412 56.3641 107.52 56.0002 107.52C55.5122 107.52 55.0441 107.326 54.6991 106.981C54.354 106.636 54.1602 106.168 54.1602 105.68ZM54.1602 96.48C54.1602 96.1161 54.2681 95.7603 54.4703 95.4578C54.6724 95.1552 54.9598 94.9193 55.296 94.7801C55.6322 94.6408 56.0022 94.6044 56.3591 94.6754C56.716 94.7464 57.0439 94.9216 57.3012 95.1789C57.5586 95.4363 57.7338 95.7641 57.8048 96.121C57.8758 96.478 57.8394 96.8479 57.7001 97.1841C57.5608 97.5204 57.325 97.8077 57.0224 98.0099C56.7198 98.2121 56.3641 98.32 56.0002 98.32C55.5122 98.32 55.0441 98.1261 54.6991 97.7811C54.354 97.436 54.1602 96.968 54.1602 96.48V96.48Z" fill="white"/>
<path d="M47.3313 34.4761C45.8685 33.2198 44.0911 32.3739 41.5785 33.6794C35.622 36.7719 40.13 48.6399 45.42 48.6399C46.8 48.6399 47.4863 52.9741 41.3421 55.9999C41.3421 51.1699 33.9821 39.21 33.3381 28.3208C25.9321 25.5631 27.7721 14.5291 32.8565 14.5291C32.045 4.41464 48.2421 -0.810042 54.5137 4.9947C60.8921 -2.65004 76.9921 1.25996 77.9641 7.89224C89.0349 1.98262 96.3121 18.97 85.946 25.5645C81.6804 28.2785 71.7021 29.3112 57.2981 29.3112C55.1237 29.3112 53.9056 29.8513 54.5137 32.54C55.6909 37.7499 52.958 41.0315 47.3313 34.4761Z" fill="url(#paint3_linear_377_6)"/>
<defs>
<linearGradient id="paint0_linear_377_6" x1="57.9462" y1="20.2852" x2="57.9462" y2="92.3399" gradientUnits="userSpaceOnUse">
<stop stop-color="#E6864E"/>
<stop offset="1" stop-color="#EB965E"/>
</linearGradient>
<linearGradient id="paint1_linear_377_6" x1="67.2173" y1="63.5955" x2="64.3974" y2="74.2732" gradientUnits="userSpaceOnUse">
<stop stop-color="#E07A3F"/>
<stop offset="1" stop-color="#EB9154"/>
</linearGradient>
<linearGradient id="paint2_linear_377_6" x1="56" y1="79.92" x2="56" y2="126.522" gradientUnits="userSpaceOnUse">
<stop stop-color="#1D0024"/>
<stop offset="1" stop-color="#100014"/>
</linearGradient>
<linearGradient id="paint3_linear_377_6" x1="59.6724" y1="0.798792" x2="59.6724" y2="55.9999" gradientUnits="userSpaceOnUse">
<stop stop-color="#1D0024"/>
<stop offset="1" stop-color="#100014"/>
</linearGradient>
</defs>
</svg>
