<svg width="24" height="25" viewBox="0 0 24 25" fill="none" xmlns="http://www.w3.org/2000/svg">
<path d="M17 3.08649H7C4 3.08649 2 5.08869 2 8.092V14.0986C2 17.1019 4 19.1041 7 19.1041V21.2365C7 22.0374 7.89 22.5179 8.55 22.0674L13 19.1041H17C20 19.1041 22 17.1019 22 14.0986V8.092C22 5.08869 20 3.08649 17 3.08649ZM12 15.2699C11.58 15.2699 11.25 14.9295 11.25 14.5191C11.25 14.1086 11.58 13.7683 12 13.7683C12.42 13.7683 12.75 14.1086 12.75 14.5191C12.75 14.9295 12.42 15.2699 12 15.2699ZM13.26 11.1153C12.87 11.3756 12.75 11.5458 12.75 11.8261V12.0363C12.75 12.4468 12.41 12.7872 12 12.7872C11.59 12.7872 11.25 12.4468 11.25 12.0363V11.8261C11.25 10.6648 12.1 10.0942 12.42 9.87396C12.79 9.62369 12.91 9.4535 12.91 9.19321C12.91 8.69266 12.5 8.28221 12 8.28221C11.5 8.28221 11.09 8.69266 11.09 9.19321C11.09 9.60366 10.75 9.94404 10.34 9.94404C9.93 9.94404 9.59 9.60366 9.59 9.19321C9.59 7.86175 10.67 6.78056 12 6.78056C13.33 6.78056 14.41 7.86175 14.41 9.19321C14.41 10.3345 13.57 10.9051 13.26 11.1153Z" fill="#1D1D1D"/>
</svg>
