<svg width="18" height="21" viewBox="0 0 18 21" fill="none" xmlns="http://www.w3.org/2000/svg">
<path d="M17.6191 6.75814C16.5691 2.13304 12.5391 0.0507507 8.99912 0.0507507C8.99912 0.0507507 8.99912 0.0507507 8.98912 0.0507507C5.45912 0.0507507 1.41912 2.12303 0.369119 6.74813C-0.800881 11.9138 2.35912 16.2886 5.21912 19.0417C6.27912 20.0628 7.63912 20.5734 8.99912 20.5734C10.3591 20.5734 11.7191 20.0628 12.7691 19.0417C15.6291 16.2886 18.7891 11.9238 17.6191 6.75814ZM8.99912 11.7737C7.25912 11.7737 5.84912 10.3621 5.84912 8.62019C5.84912 6.87827 7.25912 5.46672 8.99912 5.46672C10.7391 5.46672 12.1491 6.87827 12.1491 8.62019C12.1491 10.3621 10.7391 11.7737 8.99912 11.7737Z" fill="#1D1D1D"/>
</svg>
