<svg width="298" height="190" viewBox="0 0 298 190" fill="none" xmlns="http://www.w3.org/2000/svg">
<mask id="mask0_668_784" style="mask-type:alpha" maskUnits="userSpaceOnUse" x="0" y="0" width="298" height="190">
<rect width="298" height="190" rx="8" fill="#D1BBFF"/>
</mask>
<g mask="url(#mask0_668_784)">
<rect width="298" height="190" rx="8" fill="url(#paint0_linear_668_784)"/>
<ellipse cx="232" cy="97.5" rx="133" ry="131.5" fill="white" fill-opacity="0.12"/>
<path d="M255.836 27.401H240.539V52.3851H255.836V27.401Z" fill="#FF5F00"/>
<path d="M242.115 39.8951C242.113 37.4893 242.658 35.1147 243.709 32.9508C244.761 30.787 246.291 28.8906 248.183 27.4052C245.839 25.5632 243.024 24.4177 240.06 24.0998C237.096 23.7818 234.102 24.3042 231.421 25.6072C228.74 26.9102 226.479 28.9413 224.898 31.4682C223.316 33.9952 222.478 36.9162 222.478 39.8973C222.478 42.8784 223.316 45.7993 224.898 48.3263C226.479 50.8533 228.74 52.8843 231.421 54.1873C234.102 55.4903 237.096 56.0127 240.06 55.6948C243.024 55.3768 245.839 54.2313 248.183 52.3893C246.29 50.9035 244.76 49.0064 243.709 46.8418C242.657 44.6771 242.112 42.3016 242.115 39.8951Z" fill="#F24E1E"/>
<path d="M272.373 49.7414V49.2295H272.594V49.1235H272.068V49.2295H272.276V49.7414H272.373ZM273.392 49.7414V49.1235H273.233L273.048 49.5649L272.863 49.1235H272.704V49.7414H272.819V49.2736L272.991 49.6752H273.11L273.282 49.2736V49.7414H273.392Z" fill="#F79E1B"/>
<path d="M273.891 39.8952C273.891 42.8765 273.052 45.7977 271.471 48.3247C269.889 50.8518 267.628 52.8828 264.946 54.1856C262.265 55.4885 259.271 56.0105 256.306 55.6921C253.342 55.3737 250.527 54.2277 248.184 52.385C250.075 50.8984 251.605 49.0015 252.656 46.8375C253.708 44.6735 254.254 42.299 254.254 39.893C254.254 37.487 253.708 35.1125 252.656 32.9485C251.605 30.7845 250.075 28.8877 248.184 27.401C250.527 25.5584 253.342 24.4123 256.306 24.0939C259.271 23.7755 262.265 24.2976 264.946 25.6004C267.628 26.9032 269.889 28.9342 271.471 31.4613C273.052 33.9883 273.891 36.9095 273.891 39.8908V39.8952Z" fill="#FFD25F"/>
</g>
<defs>
<linearGradient id="paint0_linear_668_784" x1="0" y1="95" x2="298" y2="95" gradientUnits="userSpaceOnUse">
<stop stop-color="#B993D6"/>
<stop offset="1" stop-color="#8CA6DB"/>
</linearGradient>
</defs>
</svg>
