<svg width="39" height="25" viewBox="0 0 39 25" fill="none" xmlns="http://www.w3.org/2000/svg">
    <mask id="mask0_0_1" style="mask-type:alpha" maskUnits="userSpaceOnUse" x="0" y="0" width="39" height="25">
        <rect x="0.23999" y="0.319946" width="38.48" height="23.92" rx="2" fill="#D1BBFF"/>
    </mask>
    <g mask="url(#mask0_0_1)">
        <rect x="0.23999" y="0.319946" width="38.48" height="23.92" fill="url(#paint0_linear_0_1)"/>
        <circle cx="29.88" cy="12.2799" r="17.16" fill="white" fill-opacity="0.12"/>
        <path d="M33.3163 3.37561H31.3386V6.60574H33.3163V3.37561Z" fill="#FF5F00"/>
        <path d="M31.5425 4.99135C31.5423 4.68032 31.6128 4.37331 31.7487 4.09355C31.8846 3.81379 32.0824 3.56861 32.3271 3.37657C32.024 3.13842 31.6601 2.99033 31.2769 2.94922C30.8937 2.90811 30.5066 2.97565 30.16 3.14411C29.8133 3.31257 29.521 3.57516 29.3166 3.90187C29.1121 4.22858 29.0037 4.60622 29.0037 4.99164C29.0037 5.37706 29.1121 5.7547 29.3166 6.08141C29.521 6.40812 29.8133 6.67071 30.16 6.83917C30.5066 7.00763 30.8937 7.07517 31.2769 7.03406C31.6601 6.99295 32.024 6.84486 32.3271 6.6067C32.0823 6.41461 31.8845 6.16934 31.7486 5.88947C31.6126 5.60961 31.5422 5.30248 31.5425 4.99135Z" fill="#F24E1E"/>
        <path d="M35.4542 6.26409V6.1979H35.4827V6.1842H35.4148V6.1979H35.4416V6.26409H35.4542ZM35.586 6.26409V6.1842H35.5654L35.5415 6.24126L35.5175 6.1842H35.497V6.26409H35.5118V6.2036L35.534 6.25553H35.5495L35.5717 6.2036V6.26409H35.586Z" fill="#F79E1B"/>
        <path d="M35.6506 4.99106C35.6506 5.37651 35.5421 5.75418 35.3376 6.0809C35.1331 6.40761 34.8408 6.6702 34.4941 6.83864C34.1474 7.00708 33.7603 7.07457 33.3771 7.0334C32.9938 6.99224 32.6299 6.84407 32.3269 6.60584C32.5715 6.41363 32.7692 6.16839 32.9052 5.88862C33.0411 5.60884 33.1118 5.30184 33.1118 4.99078C33.1118 4.67971 33.0411 4.37271 32.9052 4.09294C32.7692 3.81316 32.5715 3.56792 32.3269 3.37571C32.6299 3.13748 32.9938 2.98932 33.3771 2.94815C33.7603 2.90698 34.1474 2.97448 34.4941 3.14292C34.8408 3.31135 35.1331 3.57394 35.3376 3.90066C35.5421 4.22738 35.6506 4.60504 35.6506 4.99049V4.99106Z" fill="#FFD25F"/>
    </g>
    <defs>
        <linearGradient id="paint0_linear_0_1" x1="0.23999" y1="12.2799" x2="38.72" y2="12.2799" gradientUnits="userSpaceOnUse">
            <stop stop-color="#B993D6"/>
            <stop offset="1" stop-color="#8CA6DB"/>
        </linearGradient>
    </defs>
</svg>
