<svg width="24" height="25" viewBox="0 0 24 25" fill="none" xmlns="http://www.w3.org/2000/svg">
<path fill-rule="evenodd" clip-rule="evenodd" d="M2.00174 10.5H21.9983C21.9862 8.32497 21.8897 7.14706 21.1213 6.37868C20.2426 5.5 18.8284 5.5 16 5.5H8C5.17157 5.5 3.75736 5.5 2.87868 6.37868C2.1103 7.14706 2.01384 8.32497 2.00174 10.5ZM22 12.5H2V14.5C2 17.3284 2 18.7426 2.87868 19.6213C3.75736 20.5 5.17157 20.5 8 20.5H16C18.8284 20.5 20.2426 20.5 21.1213 19.6213C22 18.7426 22 17.3284 22 14.5V12.5ZM7 15.5C6.44772 15.5 6 15.9477 6 16.5C6 17.0523 6.44772 17.5 7 17.5H7.01C7.56228 17.5 8.01 17.0523 8.01 16.5C8.01 15.9477 7.56228 15.5 7.01 15.5H7Z" fill="#8E8EA9"/>
</svg>
