<svg width="18" height="19" viewBox="0 0 18 19" fill="none" xmlns="http://www.w3.org/2000/svg">
<path d="M8.25 1.63947H6.75C3 1.63947 1.5 3.14112 1.5 6.89525V11.4002C1.5 15.1544 3 16.656 6.75 16.656H11.25C15 16.656 16.5 15.1544 16.5 11.4002V9.89856" fill="#F19434"/>
<path d="M8.25 1.63947H6.75C3 1.63947 1.5 3.14112 1.5 6.89525V11.4002C1.5 15.1544 3 16.656 6.75 16.656H11.25C15 16.656 16.5 15.1544 16.5 11.4002V9.89856" stroke="white" stroke-width="1.5" stroke-linecap="round" stroke-linejoin="round"/>
<path d="M12.0304 2.40532L6.1204 8.32184C5.8954 8.54709 5.6704 8.99008 5.6254 9.31293L5.3029 11.5729C5.1829 12.3913 5.7604 12.962 6.5779 12.8493L8.8354 12.5265C9.1504 12.4814 9.5929 12.2562 9.8254 12.0309L15.7354 6.11441C16.7554 5.09329 17.2354 3.90698 15.7354 2.40532C14.2354 0.903671 13.0504 1.3842 12.0304 2.40532Z" fill="#F19434" stroke="white" stroke-width="1.5" stroke-miterlimit="10" stroke-linecap="round" stroke-linejoin="round"/>
<path d="M11.1816 3.25372C11.6841 5.0482 13.0866 6.45225 14.8866 6.96281L11.1816 3.25372Z" fill="#F19434"/>
<path d="M11.1816 3.25372C11.6841 5.0482 13.0866 6.45225 14.8866 6.96281" stroke="white" stroke-width="1.5" stroke-miterlimit="10" stroke-linecap="round" stroke-linejoin="round"/>
</svg>
