<svg width="24" height="25" viewBox="0 0 24 25" fill="none" xmlns="http://www.w3.org/2000/svg">
<path d="M18.8008 10.3652C17.6708 10.3652 16.6608 10.9158 16.0308 11.7568C15.4008 10.9158 14.3908 10.3652 13.2608 10.3652C11.3508 10.3652 9.80078 11.927 9.80078 13.8491C9.80078 14.5899 9.92078 15.2806 10.1208 15.9113C11.1008 19.0248 14.1408 20.8968 15.6408 21.4074C15.8508 21.4775 16.2008 21.4775 16.4108 21.4074C17.9108 20.8968 20.9508 19.0348 21.9308 15.9113C22.1408 15.2706 22.2508 14.5899 22.2508 13.8491C22.2608 11.927 20.7108 10.3652 18.8008 10.3652Z" fill="#1D1D11"/>
<path d="M20.75 8.79354C20.75 9.02379 20.52 9.17396 20.3 9.11389C18.95 8.7635 17.47 9.05382 16.35 9.85471C16.13 10.0149 15.83 10.0149 15.62 9.85471C14.83 9.27407 13.87 8.95371 12.86 8.95371C10.28 8.95371 8.18 11.066 8.18 13.6689C8.18 16.492 9.53 18.6043 10.89 20.0159C10.96 20.086 10.9 20.2061 10.81 20.1661C8.08 19.235 2 15.3708 2 8.79354C2 5.89034 4.33 3.54776 7.21 3.54776C8.92 3.54776 10.43 4.36866 11.38 5.64006C12.34 4.36866 13.85 3.54776 15.55 3.54776C18.42 3.54776 20.75 5.89034 20.75 8.79354Z" fill="#1D1D11"/>
</svg>
