<svg width="23" height="22" viewBox="0 0 23 22" fill="none" xmlns="http://www.w3.org/2000/svg">
<path d="M13.2299 2.50998L14.9899 6.02998C15.2299 6.51998 15.8699 6.98998 16.4099 7.07998L19.5999 7.60998C21.6399 7.94998 22.1199 9.42998 20.6499 10.89L18.1699 13.37C17.7499 13.79 17.5199 14.6 17.6499 15.18L18.3599 18.25C18.9199 20.68 17.6299 21.62 15.4799 20.35L12.4899 18.58C11.9499 18.26 11.0599 18.26 10.5099 18.58L7.51991 20.35C5.37991 21.62 4.07991 20.67 4.63991 18.25L5.34991 15.18C5.47991 14.6 5.24991 13.79 4.82991 13.37L2.34991 10.89C0.889909 9.42998 1.35991 7.94998 3.39991 7.60998L6.58991 7.07998C7.11991 6.98998 7.75991 6.51998 7.99991 6.02998L9.75991 2.50998C10.7199 0.599984 12.2799 0.599984 13.2299 2.50998Z" fill="#F19434" stroke="#F19434" stroke-width="1.5" stroke-linecap="round" stroke-linejoin="round"/>
</svg>
