<svg width="25" height="24" viewBox="0 0 25 24" fill="none" xmlns="http://www.w3.org/2000/svg">
<path d="M22.5388 5.78194L15.6337 0.945395C13.7515 -0.374754 10.8624 -0.302746 9.05224 1.10141L3.04624 5.79394C1.84744 6.73005 0.900391 8.65027 0.900391 10.1624V18.4434C0.900391 21.5037 3.38191 24 6.43885 24H19.3619C22.4189 24 24.9004 21.5157 24.9004 18.4554V10.3185C24.9004 8.69827 23.8574 6.70605 22.5388 5.78194ZM13.7995 19.1995C13.7995 19.6915 13.3919 20.0996 12.9004 20.0996C12.4089 20.0996 12.0013 19.6915 12.0013 19.1995V15.5991C12.0013 15.107 12.4089 14.6989 12.9004 14.6989C13.3919 14.6989 13.7995 15.107 13.7995 15.5991V19.1995Z" fill="#F19434"/>
</svg>
