<svg width="24" height="25" viewBox="0 0 24 25" fill="none" xmlns="http://www.w3.org/2000/svg">
<path d="M8.93 2.54355H5.02C3 2.54355 2 3.54465 2 5.56688V9.4912C2 11.5535 3 12.5546 5.02 12.5045H8.94C11 12.5546 12 11.5535 11.95 9.48119V5.56688C12 3.54465 11 2.54355 8.93 2.54355ZM9.01 10.3121C8.33 10.3121 7.67 10.0518 7.12 9.59131C6.5 10.0418 5.75 10.3121 4.94 10.3121C4.53 10.3121 4.19 9.97173 4.19 9.56128C4.19 9.15083 4.53 8.81045 4.94 8.81045C5.96 8.81045 6.81 8.10968 7.12 7.14862H4.94C4.53 7.14862 4.19 6.80825 4.19 6.39779C4.19 5.98734 4.53 5.64697 4.94 5.64697H6.23C6.27 5.26655 6.58 4.96622 6.97 4.96622C7.36 4.96622 7.67 5.26655 7.71 5.64697H7.97C7.98 5.64697 7.99 5.64697 7.99 5.64697H8.01H9C9.41 5.64697 9.75 5.98734 9.75 6.39779C9.75 6.80825 9.42 7.14862 9 7.14862H8.67C8.58 7.62915 8.39 8.07965 8.14 8.4901C8.41 8.69032 8.7 8.81045 9.01 8.81045C9.42 8.81045 9.76 9.15083 9.76 9.56128C9.76 9.97173 9.42 10.3121 9.01 10.3121Z" fill="#1D1D1D"/>
<path d="M9 23.3164C4.73 23.3164 1.25 19.8326 1.25 15.5579C1.25 15.1474 1.59 14.8071 2 14.8071C2.41 14.8071 2.75 15.1474 2.75 15.5579C2.75 18.5212 4.81 21.0039 7.58 21.6546L7.31 21.2041C7.1 20.8437 7.21 20.3832 7.57 20.173C7.92 19.9627 8.39 20.0729 8.6 20.4333L9.65 22.1852C9.79 22.4154 9.79 22.7058 9.66 22.936C9.52 23.1663 9.27 23.3164 9 23.3164Z" fill="#1D1D1D"/>
<path d="M22.0004 10.3021C21.5904 10.3021 21.2504 9.96172 21.2504 9.55127C21.2504 6.58801 19.1904 4.10527 16.4204 3.45455L16.6904 3.90505C16.9004 4.26545 16.7904 4.72596 16.4304 4.93619C16.0804 5.14642 15.6104 5.0363 15.4004 4.6759L14.3504 2.92397C14.2104 2.69372 14.2104 2.4034 14.3404 2.17314C14.4804 1.94289 14.7304 1.79272 15.0004 1.79272C19.2704 1.79272 22.7504 5.27656 22.7504 9.55127C22.7504 9.96172 22.4104 10.3021 22.0004 10.3021Z" fill="#1D1D1D"/>
<path d="M16.9201 12.4044C14.1201 12.4044 11.8401 14.6769 11.8401 17.49C11.8401 20.2931 14.1101 22.5756 16.9201 22.5756C19.7201 22.5756 22.0001 20.3031 22.0001 17.49C22.0001 14.6769 19.7301 12.4044 16.9201 12.4044ZM19.4001 19.9027C19.0301 20.0829 18.5801 19.9427 18.3901 19.5623L18.2201 19.2219H15.6301L15.4601 19.5623C15.3301 19.8226 15.0601 19.9728 14.7901 19.9728C14.6801 19.9728 14.5601 19.9427 14.4601 19.8927C14.0901 19.7025 13.9401 19.252 14.1201 18.8816L16.2601 14.6068C16.3901 14.3566 16.6501 14.1964 16.9301 14.1964C17.2101 14.1964 17.4701 14.3566 17.6001 14.6169L19.7401 18.8916C19.9201 19.262 19.7701 19.7125 19.4001 19.9027Z" fill="#1D1D1D"/>
<path d="M16.3799 17.7203H17.4699L16.9199 16.6291L16.3799 17.7203Z" fill="#1D1D1D"/>
</svg>
