<svg width="24" height="25" viewBox="0 0 24 25" fill="none" xmlns="http://www.w3.org/2000/svg">
<path d="M20.1892 14.3258L19.0592 12.4437C18.8092 12.0332 18.5892 11.2424 18.5892 10.7618V8.88978C18.5892 5.25577 15.6392 2.30252 12.0192 2.30252C8.38923 2.31253 5.43923 5.25577 5.43923 8.88978V10.7518C5.43923 11.2324 5.21923 12.0232 4.97923 12.4337L3.84923 14.3158C3.41923 15.0466 3.31923 15.8775 3.58923 16.5983C3.85923 17.3291 4.46923 17.9097 5.26923 18.17C6.34923 18.5304 7.43923 18.7907 8.54923 18.9809C8.65923 19.0009 8.76923 19.0109 8.87923 19.0309C9.01923 19.051 9.16923 19.071 9.31923 19.091C9.57923 19.1311 9.83923 19.1611 10.1092 19.1811C10.7392 19.2412 11.3792 19.2712 12.0192 19.2712C12.6492 19.2712 13.2792 19.2412 13.8992 19.1811C14.1292 19.1611 14.3592 19.1411 14.5792 19.111C14.7592 19.091 14.9392 19.071 15.1192 19.041C15.2292 19.0309 15.3392 19.0109 15.4492 18.9909C16.5692 18.8107 17.6792 18.5304 18.7592 18.17C19.5292 17.9097 20.1192 17.3291 20.3992 16.5883C20.6792 15.8374 20.5992 15.0165 20.1892 14.3258ZM12.7492 10.2613C12.7492 10.6817 12.4092 11.0221 11.9892 11.0221C11.5692 11.0221 11.2292 10.6817 11.2292 10.2613V7.15787C11.2292 6.73741 11.5692 6.39703 11.9892 6.39703C12.4092 6.39703 12.7492 6.73741 12.7492 7.15787V10.2613Z" fill="#1D1D1D"/>
<path d="M14.8297 20.2824C14.4097 21.4436 13.2997 22.2745 11.9997 22.2745C11.2097 22.2745 10.4297 21.9542 9.87969 21.3836C9.55969 21.0832 9.31969 20.6828 9.17969 20.2723C9.30969 20.2924 9.43969 20.3024 9.57969 20.3224C9.80969 20.3524 10.0497 20.3825 10.2897 20.4025C10.8597 20.4525 11.4397 20.4826 12.0197 20.4826C12.5897 20.4826 13.1597 20.4525 13.7197 20.4025C13.9297 20.3825 14.1397 20.3724 14.3397 20.3424C14.4997 20.3224 14.6597 20.3024 14.8297 20.2824Z" fill="#1D1D1D"/>
</svg>
