<svg width="25" height="24" viewBox="0 0 25 24" fill="none" xmlns="http://www.w3.org/2000/svg">
<path d="M2.49951 2H4.23952C5.31952 2 6.16951 2.93 6.07951 4L5.24951 13.96C5.10951 15.59 6.39951 16.99 8.03951 16.99H18.6895C20.1295 16.99 21.3895 15.81 21.4995 14.38L22.0395 6.88C22.1595 5.22 20.8995 3.87 19.2295 3.87H6.31952" stroke="#1D1D1D" stroke-width="1.5" stroke-miterlimit="10" stroke-linecap="round" stroke-linejoin="round"/>
<path d="M16.7495 22C17.4399 22 17.9995 21.4404 17.9995 20.75C17.9995 20.0596 17.4399 19.5 16.7495 19.5C16.0592 19.5 15.4995 20.0596 15.4995 20.75C15.4995 21.4404 16.0592 22 16.7495 22Z" stroke="#1D1D1D" stroke-width="1.5" stroke-miterlimit="10" stroke-linecap="round" stroke-linejoin="round"/>
<path d="M8.74951 22C9.43987 22 9.99951 21.4404 9.99951 20.75C9.99951 20.0596 9.43987 19.5 8.74951 19.5C8.05916 19.5 7.49951 20.0596 7.49951 20.75C7.49951 21.4404 8.05916 22 8.74951 22Z" stroke="#1D1D1D" stroke-width="1.5" stroke-miterlimit="10" stroke-linecap="round" stroke-linejoin="round"/>
<path d="M9.49951 8H21.4995" stroke="#1D1D1D" stroke-width="1.5" stroke-miterlimit="10" stroke-linecap="round" stroke-linejoin="round"/>
</svg>
