<svg width="25" height="24" viewBox="0 0 25 24" fill="none" xmlns="http://www.w3.org/2000/svg">
<path d="M16.7496 22.5C17.7161 22.5 18.4996 21.7165 18.4996 20.75C18.4996 19.7835 17.7161 19 16.7496 19C15.7831 19 14.9996 19.7835 14.9996 20.75C14.9996 21.7165 15.7831 22.5 16.7496 22.5Z" fill="#F19434"/>
<path d="M8.74963 22.5C9.71613 22.5 10.4996 21.7165 10.4996 20.75C10.4996 19.7835 9.71613 19 8.74963 19C7.78314 19 6.99963 19.7835 6.99963 20.75C6.99963 21.7165 7.78314 22.5 8.74963 22.5Z" fill="#F19434"/>
<path d="M5.33963 3.94L5.13963 6.39C5.09963 6.86 5.46963 7.25 5.93963 7.25H21.2496C21.6696 7.25 22.0196 6.93 22.0496 6.51C22.1796 4.74 20.8296 3.3 19.0596 3.3H6.76963C6.66963 2.86 6.46963 2.44 6.15963 2.09C5.65963 1.56 4.95963 1.25 4.23963 1.25H2.49963C2.08963 1.25 1.74963 1.59 1.74963 2C1.74963 2.41 2.08963 2.75 2.49963 2.75H4.23963C4.54963 2.75 4.83963 2.88 5.04963 3.1C5.25963 3.33 5.35963 3.63 5.33963 3.94Z" fill="#F19434"/>
<path d="M21.0097 8.75H5.66969C5.24969 8.75 4.90969 9.07 4.86969 9.48L4.50969 13.83C4.36969 15.54 5.70969 17 7.41969 17H18.5397C20.0397 17 21.3597 15.77 21.4697 14.27L21.7997 9.6C21.8397 9.14 21.4797 8.75 21.0097 8.75Z" fill="#F19434"/>
</svg>
