<svg width="25" height="24" viewBox="0 0 25 24" fill="none" xmlns="http://www.w3.org/2000/svg">
<path d="M14.2299 3.50998L15.9899 7.02998C16.2299 7.51998 16.8699 7.98998 17.4099 8.07998L20.5999 8.60998C22.6399 8.94998 23.1199 10.43 21.6499 11.89L19.1699 14.37C18.7499 14.79 18.5199 15.6 18.6499 16.18L19.3599 19.25C19.9199 21.68 18.6299 22.62 16.4799 21.35L13.4899 19.58C12.9499 19.26 12.0599 19.26 11.5099 19.58L8.51991 21.35C6.37991 22.62 5.07991 21.67 5.63991 19.25L6.34991 16.18C6.47991 15.6 6.24991 14.79 5.82991 14.37L3.34991 11.89C1.88991 10.43 2.35991 8.94998 4.39991 8.60998L7.58991 8.07998C8.11991 7.98998 8.75991 7.51998 8.99991 7.02998L10.7599 3.50998C11.7199 1.59998 13.2799 1.59998 14.2299 3.50998Z" stroke="#F19434" stroke-width="1.5" stroke-linecap="round" stroke-linejoin="round"/>
</svg>
