<svg width="24" height="25" viewBox="0 0 24 25" fill="none" xmlns="http://www.w3.org/2000/svg">
<path d="M15.22 6.90451H5.78C5.5 6.90451 5.24 6.91452 5 6.92453C2.63 7.06469 2 7.93565 2 10.6386V11.2193C2 11.7699 2.45 12.2204 3 12.2204H18C18.55 12.2204 19 11.7699 19 11.2193V10.6386C19 7.65534 18.24 6.90451 15.22 6.90451Z" fill="#1D1D1D"/>
<path d="M3 13.722C2.45 13.722 2 14.1725 2 14.7231V17.6363C2 20.6196 2.76 21.3704 5.78 21.3704H15.22C18.19 21.3704 18.97 20.6496 19 17.7965V14.7231C19 14.1725 18.55 13.722 18 13.722H3ZM6.96 18.9277H5.25C4.84 18.9277 4.5 18.5874 4.5 18.1769C4.5 17.7665 4.84 17.4261 5.25 17.4261H6.97C7.38 17.4261 7.72 17.7665 7.72 18.1769C7.72 18.5874 7.38 18.9277 6.96 18.9277ZM12.55 18.9277H9.11C8.7 18.9277 8.36 18.5874 8.36 18.1769C8.36 17.7665 8.7 17.4261 9.11 17.4261H12.55C12.96 17.4261 13.3 17.7665 13.3 18.1769C13.3 18.5874 12.97 18.9277 12.55 18.9277Z" fill="#1D1D1D"/>
<path d="M21.9996 13.692V8.44621C21.9996 5.31276 20.2096 3.95126 17.5096 3.95126H8.57962C7.81962 3.95126 7.13962 4.06138 6.53962 4.29164C6.06962 4.46183 5.64962 4.7121 5.30962 5.04247C5.12962 5.21265 5.26962 5.49296 5.52962 5.49296H16.3996C18.6496 5.49296 20.4696 7.31497 20.4696 9.56745V16.7454C20.4696 16.9956 20.7396 17.1358 20.9196 16.9556C21.6096 16.2248 21.9996 15.1536 21.9996 13.692Z" fill="#1D1D1D"/>
</svg>
