<svg width="25" height="24" viewBox="0 0 25 24" fill="none" xmlns="http://www.w3.org/2000/svg">
<path d="M12.2998 2C9.6798 2 7.5498 4.13 7.5498 6.75C7.5498 9.32 9.5598 11.4 12.1798 11.49C12.2598 11.48 12.3398 11.48 12.3998 11.49C12.4198 11.49 12.4298 11.49 12.4498 11.49C12.4598 11.49 12.4598 11.49 12.4698 11.49C15.0298 11.4 17.0398 9.32 17.0498 6.75C17.0498 4.13 14.9198 2 12.2998 2Z" fill="#F19434"/>
<path d="M17.3798 14.1499C14.5898 12.2899 10.0398 12.2899 7.22977 14.1499C5.95977 14.9999 5.25977 16.1499 5.25977 17.3799C5.25977 18.6099 5.95977 19.7499 7.21977 20.5899C8.61977 21.5299 10.4598 21.9999 12.2998 21.9999C14.1398 21.9999 15.9798 21.5299 17.3798 20.5899C18.6398 19.7399 19.3398 18.5999 19.3398 17.3599C19.3298 16.1299 18.6398 14.9899 17.3798 14.1499Z" fill="#F19434"/>
</svg>
