<svg width="25" height="24" viewBox="0 0 25 24" fill="none" xmlns="http://www.w3.org/2000/svg">
<path d="M12.4594 10.87C12.3594 10.86 12.2394 10.86 12.1294 10.87C9.74937 10.79 7.85938 8.84 7.85938 6.44C7.85937 3.99 9.83938 2 12.2994 2C14.7494 2 16.7394 3.99 16.7394 6.44C16.7294 8.84 14.8394 10.79 12.4594 10.87Z" stroke="#1D1D1D" stroke-width="1.5" stroke-linecap="round" stroke-linejoin="round"/>
<path d="M7.45953 14.56C5.03953 16.18 5.03953 18.82 7.45953 20.43C10.2095 22.27 14.7195 22.27 17.4695 20.43C19.8895 18.81 19.8895 16.17 17.4695 14.56C14.7295 12.73 10.2195 12.73 7.45953 14.56Z" stroke="#1D1D1D" stroke-width="1.5" stroke-linecap="round" stroke-linejoin="round"/>
</svg>
