<svg width="25" height="24" viewBox="0 0 25 24" fill="none" xmlns="http://www.w3.org/2000/svg">
<path d="M12.2002 21C17.4469 21 21.7002 16.7467 21.7002 11.5C21.7002 6.25329 17.4469 2 12.2002 2C6.95349 2 2.7002 6.25329 2.7002 11.5C2.7002 16.7467 6.95349 21 12.2002 21Z" fill="#F19434"/>
<path d="M21.9998 22.0001C21.8198 22.0001 21.6398 21.9301 21.5098 21.8001L19.6498 19.9401C19.3798 19.6701 19.3798 19.2301 19.6498 18.9501C19.9198 18.6801 20.3598 18.6801 20.6398 18.9501L22.4998 20.8101C22.7698 21.0801 22.7698 21.5201 22.4998 21.8001C22.3598 21.9301 22.1798 22.0001 21.9998 22.0001Z" fill="#F19434"/>
</svg>
